<?xml version="1.0" standalone="no"?>
<!DOCTYPE svg PUBLIC "-//W3C//DTD SVG 1.1//EN" "http://www.w3.org/Graphics/SVG/1.1/DTD/svg11.dtd" >
<svg xmlns="http://www.w3.org/2000/svg">
<metadata>
This is a custom SVG webfont generated by Font Squirrel.
Copyright   : Copyright c 2008 by Jan SchmoegerParagraph All rights reserved
Designer    : Jan Schmoeger
Foundry     : Jan SchmoegerParagraph
Foundry URL : wwwmyfontscom
</metadata>
<defs>
<font id="MentoneSemiBoldItalic" horiz-adv-x="1234" >
<font-face units-per-em="2048" ascent="1536" descent="-512" />
<missing-glyph horiz-adv-x="522" />
<glyph unicode=" "  horiz-adv-x="522" />
<glyph unicode="&#x09;" horiz-adv-x="522" />
<glyph unicode="&#xa0;" horiz-adv-x="522" />
<glyph unicode="!" horiz-adv-x="641" d="M90 96q0 68 51.5 119t118.5 51q53 0 87 -33.5t34 -85.5q0 -16 -2 -24q-8 -59 -58.5 -101t-109.5 -42q-53 0 -87 32.5t-34 83.5zM166 424q0 2 2 6l147 840q14 82 45 143q10 20 25 21h205q16 0 16 -17l-8 -16q-6 -16 -17.5 -52t-19.5 -79l-145 -819q-4 -20 -23 -21 l-209 -20q-18 0 -18 14z" />
<glyph unicode="&#x22;" horiz-adv-x="831" d="M180 901l66 492q2 16 24 20q178 20 189 21q16 0 16 -21l-106 -489q-4 -18 -25 -23q-137 -20 -147 -20q-17 0 -17 20zM569 901l66 492q2 16 24 20q178 20 189 21q16 0 16 -21l-106 -489q-4 -18 -25 -23q-137 -20 -147 -20q-17 0 -17 20z" />
<glyph unicode="#" horiz-adv-x="1409" d="M80 424q0 6 29 170q4 20 20 20h252l35 205h-246q-20 0 -20 21l32 164q6 20 29 20h242l65 369q4 18 21 20q180 20 184 21q20 0 20 -21l-69 -389h209l65 369q4 18 21 20q180 20 184 21q20 0 21 -21l-66 -389h242q20 0 20 -20l-31 -164q-4 -20 -24 -21h-244l-37 -205h242 q20 0 20 -20l-26 -164q-4 -20 -27 -20h-244l-69 -390q-4 -20 -23 -20h-184q-20 0 -21 20l72 390h-205l-71 -390q-4 -20 -21 -20h-184q-20 0 -21 20l72 390h-250q-14 0 -14 14zM604 614h205l37 205h-205z" />
<glyph unicode="$" horiz-adv-x="1200" d="M53 82v164q0 20 21 20q2 0 54 -15t139 -34.5t167 -28.5l76 433q-340 125 -340 364q0 410 485 465l31 168q2 16 25 20q160 20 163 21q20 0 21 -21l-35 -188q80 -6 142.5 -20.5t82.5 -24.5l23 -12q14 -6 18 -21v-164q0 -20 -24 -20l-35 12q-35 10 -101.5 24.5t-140.5 20.5 l-75 -432q338 -131 337 -367q0 -408 -485 -462l-33 -189q-4 -20 -24 -20h-164q-16 0 -16 20l32 189q-92 8 -174 27.5t-117 33.5l-36 16q-17 7 -17 21zM420 1032q0 -88 135 -149l63 356q-198 -43 -198 -207zM639 193q199 43 199 208q0 86 -136 150z" />
<glyph unicode="%" horiz-adv-x="1929" d="M137 928q0 63 10 116q74 410 443 410q307 0 307 -289q0 -55 -12 -121q-35 -209 -149.5 -309t-291.5 -100q-307 0 -307 293zM276 20q2 10 1137 1393q18 20 35 21h194q16 0 17 -17q0 -10 -285 -358l-567 -694l-285 -345q-14 -20 -33 -20h-194q-19 0 -19 20zM362 946 q0 -127 115 -127q80 0 121 55.5t61 169.5q10 61 11 101q0 125 -113 125q-80 0 -122 -55.5t-62 -170.5q-11 -61 -11 -98zM1044 270q0 53 13 119q74 410 440 410q309 0 309 -291q0 -53 -12 -119q-74 -410 -440 -409q-310 -1 -310 290zM1272 291q0 -127 114 -127q80 0 121 55 t62 170q10 61 10 98q0 127 -115 127q-80 0 -120.5 -55t-61.5 -170q-10 -61 -10 -98z" />
<glyph unicode="&#x26;" horiz-adv-x="1439" d="M90 307q0 334 287 461q-74 41 -119 114.5t-45 141.5q0 213 136 321.5t458 108.5q180 0 328 -61q20 -8 20 -27v-158q0 -20 -20 -20q-205 61 -369 61q-152 0 -229.5 -48t-77.5 -177q0 -74 74.5 -119t191.5 -45h160l28 123q2 16 21 21q190 20 201 20q20 0 20 -20l-27 -144 h150q20 0 20 -20v-164q-4 -20 -20 -21h-188l-28 -144l-20 -101q-6 -31 -11 -62t-6 -47t-1 -35q0 -41 26.5 -61.5t63.5 -20.5q23 0 53.5 5.5t49.5 11.5l20 4q20 0 20 -21v-164q0 -14 -20 -20q-84 -20 -164 -20q-156 4 -223 83q-145 -84 -309 -83q-250 0 -350.5 86.5 t-100.5 240.5zM336 328q0 -143 225 -144l223 29q-4 33 -4 53q0 47 19 144l49 245h-103q-168 0 -288.5 -83.5t-120.5 -243.5z" />
<glyph unicode="'" horiz-adv-x="442" d="M180 901l66 492q2 16 24 20q178 20 189 21q16 0 16 -21l-106 -489q-4 -18 -25 -23q-137 -20 -147 -20q-17 0 -17 20z" />
<glyph unicode="(" horiz-adv-x="692" d="M86 432q0 182 51 361.5t125 304.5t147.5 223t125.5 145l51 50q14 20 35 20h174q16 0 16 -14l-2 -6l-40 -39q-26 -25 -93.5 -110t-123.5 -178t-114.5 -238.5t-85.5 -295.5q-20 -121 -20 -235q0 -109 18.5 -212.5t44 -174t52 -125.5t45.5 -84l16 -29q-4 -20 -25 -20h-174 q-20 0 -26 20q-8 10 -21.5 28.5t-47.5 81t-59.5 131t-47 176t-21.5 220.5z" />
<glyph unicode=")" horiz-adv-x="690" d="M-102 -211l2 6q219 225 348 509t129 587q0 109 -18.5 212t-44 174t-52 126t-45.5 84l-16 29q4 20 24 20h174q20 0 27 -20q8 -10 21.5 -29t47 -81.5t59.5 -131t47.5 -176t21.5 -219.5q0 -184 -51.5 -364.5t-125 -304.5t-147.5 -222.5t-125 -145.5l-51 -47q-16 -20 -35 -20 h-174q-16 0 -16 14z" />
<glyph unicode="*" horiz-adv-x="956" d="M137 1057l90 182q6 14 23 14q12 0 164 -69l88 -74l-19 119q18 143 25 184q2 20 22 21h185q16 0 16 -17q0 -8 -11 -55l-22 -90l-10 -43l-59 -119l112 74l63 23l84 32q38 14 42 14q18 0 18 -14q25 -162 25 -180.5t-17 -22.5l-186 -45h-125l88 -73q88 -133 92 -142 q2 -4 2 -8q0 -14 -10 -20l-168 -109q-6 -4 -14 -4q-12 0 -14 8l-74 156l-17 116l-57 -116q-119 -147 -127 -155.5t-16 -8.5t-13 4l-131 109q-6 4 -6 14q0 8 6 14l142 142l114 73h-123l-169 45q-13 5 -13 21z" />
<glyph unicode="+" horiz-adv-x="1142" d="M29 487q0 6 12 49l25 80l12 39q6 20 24 21h369l64 368q2 16 24 21q180 20 189 20q16 0 16 -16q0 -4 -68 -393h389q16 0 17 -17q0 -8 -12 -50l-25 -81l-12 -36q-6 -20 -25 -21h-369l-65 -369q-2 -16 -23 -20q-180 -20 -188 -21q-16 0 -16 15q0 4 67 395h-389q-16 0 -16 16 z" />
<glyph unicode="," horiz-adv-x="561" d="M-106 -274l204 479q6 20 25 20h225q16 0 17 -16q0 -8 -122 -240.5t-124 -234.5q-10 -20 -25 -21h-190q-10 1 -10 13z" />
<glyph unicode="-" horiz-adv-x="899" d="M141 487q0 6 13 49l24 80l12 39q6 20 25 21h512q16 0 16 -17q0 -8 -12 -50l-24 -81l-13 -36q-6 -20 -24 -21h-512q-17 0 -17 16z" />
<glyph unicode="." horiz-adv-x="512" d="M31 96q0 18 2 27q10 59 59 101t109 42q53 0 87 -33.5t34 -85.5q0 -68 -52.5 -117.5t-117.5 -49.5q-53 0 -87 32.5t-34 83.5z" />
<glyph unicode="/" horiz-adv-x="770" d="M-37 20l674 1393q10 20 25 21h194q16 0 16 -17q0 -8 -169 -357l-338 -695l-168 -345q-10 -20 -23 -20h-194q-17 0 -17 20z" />
<glyph unicode="0" horiz-adv-x="1343" d="M109 424q0 119 30 293q23 133 53.5 234.5t83 199.5t124 161.5t179 102.5t244.5 39q248 0 350.5 -115.5t102.5 -328.5q0 -119 -31 -293q-23 -133 -52.5 -234.5t-82.5 -200t-124 -162t-178.5 -102t-244.5 -38.5q-250 0 -352 115.5t-102 328.5zM358 469q0 -137 54.5 -211 t185.5 -74q96 0 167 41t116 120t71.5 166t46.5 206q27 164 27 248q0 285 -242 284q-96 0 -165.5 -41t-114.5 -119.5t-70.5 -164.5t-48.5 -207q-27 -144 -27 -248z" />
<glyph unicode="1" horiz-adv-x="806" d="M131 1180q2 10 10 14l400 219q205 20 209 21q16 0 16 -21l-246 -1393q-4 -20 -22 -20h-205q-18 0 -19 16l211 1203l-57 -93l-258 -139q-8 -4 -14 -4q-12 0 -13 10q-12 181 -12 187z" />
<glyph unicode="2" horiz-adv-x="1134" d="M16 20l41 226q23 121 88.5 218t148.5 157.5t177 116t174 95t138.5 95t68.5 116.5q6 31 6 58q0 72 -57.5 109.5t-198.5 37.5t-358 -61q-18 0 -19 14l51 170q4 12 23 21q158 61 340 61q262 0 366.5 -71.5t104.5 -213.5q0 -57 -12 -125q-20 -121 -104.5 -215t-191.5 -155 l-214 -120q-106 -58 -187.5 -135t-97.5 -173l-8 -41h635q16 0 16 -21l-49 -164q-6 -20 -23 -20h-839q-19 0 -19 20z" />
<glyph unicode="3" horiz-adv-x="1146" d="M-2 37q0 8 24.5 86t24.5 82q6 20 25 20q6 0 62 -10t137 -20.5t141 -10.5q176 0 252.5 71t76.5 183q0 84 -74.5 140.5t-224.5 56.5h-155q-16 0 -17 20l25 144q2 16 24 20l209 21q328 33 328 264q0 70 -56.5 107.5t-199.5 37.5q-139 0 -358 -61q-18 0 -19 14l51 170 q4 12 23 21q160 61 340 61q262 0 366.5 -70.5t104.5 -214.5q0 -317 -256 -426q139 -72 139 -249q0 -41 -6 -84q-18 -102 -52 -174t-99.5 -133.5t-179 -92t-277.5 -30.5q-190 0 -363 40q-16 5 -16 17z" />
<glyph unicode="4" horiz-adv-x="1265" d="M16 389l31 174l709 830q14 16 35 20l167 21h164q16 0 17 -21l-148 -840h185q16 0 16 -16q0 -10 -24.5 -88t-24.5 -80q-6 -20 -25 -20h-164l-61 -349q-4 -20 -23 -20h-204q-18 0 -19 20l62 349h-676q-17 0 -17 20zM274 573h471l119 676l-49 -102l-453 -543z" />
<glyph unicode="5" horiz-adv-x="1177" d="M59 61v164q0 20 23 21q6 0 58.5 -15.5t128 -31t139.5 -15.5q190 0 278 53.5t115 192.5q4 29 4 39q0 166 -318 166h-307q-16 0 -16 20l129 738q2 16 24 20l189 21h608q20 0 21 -21v-164q0 -20 -25 -20h-600l-68 -389h82q285 0 409 -66.5t124 -232.5q0 -43 -10 -111 q-43 -238 -195 -344t-479 -106q-162 0 -297 61q-17 6 -17 20z" />
<glyph unicode="6" horiz-adv-x="1208" d="M104 383q0 121 37 334q25 135 51.5 232.5t78 198.5t119 163.5t173 102.5t242.5 40q78 0 162 -15.5t129 -29.5l45 -16q18 -8 18 -21v-164q0 -20 -24 -20q-203 61 -367 61t-246 -114.5t-116 -315.5q139 61 276 62q403 0 403 -334q0 -113 -29.5 -209t-92 -179t-175 -131 t-264.5 -48q-233 0 -326.5 104t-93.5 299zM348 418q0 -119 49 -176.5t162 -57.5q135 0 206 94.5t71 213.5q0 184 -189 184q-66 0 -135.5 -15.5t-105.5 -29.5l-37 -17q-21 -126 -21 -196z" />
<glyph unicode="7" horiz-adv-x="1036" d="M66 20l749 1178l96 31h-733q-16 0 -16 20l24 144q2 16 25 20l188 21h717q16 0 17 -21l-29 -170q0 -4 -74 -121l-690 -1102q-10 -20 -23 -20h-233q-18 0 -18 20z" />
<glyph unicode="8" horiz-adv-x="1284" d="M59 287q0 274 336 430q-170 100 -170 280q0 35 6 68q70 389 562 389q430 0 430 -297q0 -266 -291 -420q207 -102 207 -299q0 -33 -6 -69q-70 -389 -601 -389q-473 0 -473 307zM311 340q0 -156 256 -156q156 0 231.5 54.5t88.5 130.5q2 8 2 24q0 133 -266 221 q-147 -55 -229.5 -117.5t-82.5 -156.5zM475 1038q0 -68 60.5 -112.5t169.5 -85.5q268 102 268 264q0 145 -217 145q-152 0 -216.5 -65.5t-64.5 -145.5z" />
<glyph unicode="9" horiz-adv-x="1206" d="M88 61v164q0 20 25 21q201 -61 364.5 -61.5t245.5 114.5t117 315q-139 -61 -277 -61q-403 0 -403 330q0 88 17.5 167.5t59.5 154.5t105.5 129.5t160.5 87t220 32.5q233 0 326.5 -104.5t93.5 -296.5q0 -106 -39 -336q-23 -135 -50.5 -232.5t-77.5 -199t-117.5 -164 t-173 -102t-243.5 -39.5q-78 0 -162.5 15t-129.5 30l-46 16q-16 6 -16 20zM412 938q0 -180 188 -180q150 0 277 61q20 109 20 197q0 119 -49 176t-162 57q-137 0 -205.5 -95t-68.5 -216z" />
<glyph unicode=":" horiz-adv-x="587" d="M63 96q0 18 3 27q10 59 59 101t108 42q53 0 87 -33.5t34 -85.5q0 -68 -52 -117.5t-118 -49.5q-53 0 -87 32.5t-34 83.5zM201 874q0 18 2 27q10 59 59 101t109 42q53 0 87 -33.5t34 -84.5q0 -68 -52.5 -118t-117.5 -50q-53 0 -87 32.5t-34 83.5z" />
<glyph unicode=";" horiz-adv-x="620" d="M-92 -274q0 10 99 241.5t106 237.5q6 20 24 20h225q16 0 17 -20l-246 -471q-10 -20 -24 -21h-191q-10 1 -10 13zM233 874q0 18 3 27q10 59 59 101t108 42q53 0 87 -33.5t34 -84.5q0 -68 -52 -118t-118 -50q-53 0 -87 32.5t-34 83.5z" />
<glyph unicode="&#x3c;" horiz-adv-x="1150" d="M18 430l29 164q2 12 23 20q1030 430 1038 430q18 0 18 -20l-34 -190q0 -10 -23 -21l-686 -281l-125 -20l119 -20l586 -281q16 -12 16 -21l-33 -190q-6 -20 -24 -20l-887 430q-17 6 -17 20z" />
<glyph unicode="=" horiz-adv-x="1376" d="M109 283q0 8 24.5 85.5t24.5 82.5q6 20 24 20h983q16 0 17 -20l-49 -164q-6 -20 -25 -21h-983q-16 1 -16 17zM180 692q0 8 25.5 86t25.5 82q6 20 23 21h983q18 0 18 -17q0 -8 -25.5 -86t-25.5 -82q-6 -20 -22 -20h-983q-19 0 -19 16z" />
<glyph unicode="&#x3e;" horiz-adv-x="1150" d="M-8 -4q8 41 35 194q2 10 24 21l684 281l127 20l-121 20l-583 281q-18 10 -19 21l35 190q4 20 23 20l886 -430q16 -8 17 -20l-27 -164q-2 -12 -24 -20q-1030 -430 -1039 -430q-18 0 -18 14v2z" />
<glyph unicode="?" horiz-adv-x="1034" d="M156 1204l49 168q4 12 22 21q160 61 381 61q238 0 334 -75.5t96 -217.5q0 -123 -45 -213t-110.5 -142t-134 -98t-125 -109.5t-70.5 -147.5q-4 -20 -23 -21l-208 -20q-16 0 -17 18q18 109 71.5 195t117 139t125 97t107.5 90t54 95q6 33 6 64q0 68 -48 104.5t-167 36.5 q-174 0 -399 -61q-16 0 -16 16zM227 96q0 18 2 27q10 59 59.5 101t108.5 42q53 0 87 -33.5t34 -85.5q0 -68 -52 -117.5t-118 -49.5q-53 0 -87 32.5t-34 83.5z" />
<glyph unicode="@" horiz-adv-x="1679" d="M106 526q0 92 19 191q29 164 84 288.5t152.5 230t257 162t374.5 56.5q639 0 639 -485q0 -291 -149.5 -466t-380.5 -175h-287q-180 0 -257 70.5t-77 201.5q0 55 13 117q35 186 139 287.5t319 101.5h103l159 -21q16 -4 17 -16l-96 -557q25 0 52 9t70 36t80 94.5t56 167.5 q10 66 10 117q0 334 -442 334q-156 0 -268.5 -43t-179.5 -125t-103.5 -172t-59.5 -213q-12 -68 -12 -135q0 -190 116.5 -304t372.5 -114q326 0 564 61q16 0 16 -20l-45 -144q-6 -12 -25 -20q-174 -61 -542 -61q-689 -1 -689 546zM713 649q0 -137 135 -137h61l72 410h-61 q-164 0 -201 -205q-6 -37 -6 -68z" />
<glyph unicode="A" horiz-adv-x="1372" d="M-88 20l766 1373q10 16 24 20l179 21h80q12 0 16 -21l287 -1393q-4 -20 -23 -20h-215q-14 0 -18 20l-78 390h-547l-213 -390q-10 -20 -23 -20h-217q-18 0 -18 20zM496 614h393l-92 471l6 144l-47 -144z" />
<glyph unicode="B" horiz-adv-x="1327" d="M84 20l242 1373q2 16 24 20l189 21h245q268 0 372 -70t104 -207q0 -299 -230 -420q156 -90 156 -250q0 -37 -4 -57q-18 -104 -49 -173t-98.5 -132.5t-191.5 -94t-311 -30.5h-430q-18 0 -18 20zM362 205h205q115 0 192 20.5t113.5 59.5t50 80t13.5 98q0 80 -63.5 126 t-229.5 46h-205zM475 840h205q188 0 257 69.5t69 186.5q0 66 -56.5 99.5t-201.5 33.5h-205z" />
<glyph unicode="C" horiz-adv-x="1282" d="M109 485q0 100 22 232q18 106 44 191t86.5 192.5t142 180.5t220 123t314.5 50q80 0 164 -15.5t127 -29.5l45 -16q18 -8 18 -21v-164q0 -20 -24 -20l-64 16q-63 14 -151 29.5t-152 15.5q-418 0 -514 -532q-16 -86 -16 -174q0 -358 342 -359q63 0 147 10.5t144 20.5l59 10 q16 0 16 -20v-160q0 -8 -8 -15t-18 -10q-143 -41 -375 -40q-569 -1 -569 505z" />
<glyph unicode="D" horiz-adv-x="1443" d="M82 20l242 1373q2 16 24 20l189 21h266q571 0 571 -492q0 -98 -22 -225q-18 -104 -44 -189.5t-84.5 -188.5t-140.5 -173t-219 -118t-313 -48h-451q-18 0 -18 20zM360 205h226q139 0 242.5 61.5t154.5 141t83 185t38 168t6 111.5q0 356 -344 357h-225z" />
<glyph unicode="E" horiz-adv-x="1230" d="M82 20l242 1373q2 16 24 20l209 21h649q20 0 21 -21v-164q0 -20 -21 -20h-665l-68 -389h594q16 0 16 -21l-28 -164q-4 -20 -25 -20h-594l-76 -430h656q16 0 16 -21l-49 -164q-6 -20 -22 -20h-861q-18 0 -18 20z" />
<glyph unicode="F" horiz-adv-x="1185" d="M82 20l242 1373q2 16 24 20l189 21h669q20 0 21 -21v-164q0 -20 -21 -20h-665l-68 -389h594q16 0 16 -21l-28 -164q-4 -20 -25 -20h-594l-108 -615q-4 -20 -23 -20h-205q-18 0 -18 20z" />
<glyph unicode="G" horiz-adv-x="1404" d="M109 487q0 98 22 230q18 106 45 192t86.5 192.5t141 179.5t220 123t314.5 50q205 0 354 -59q20 -6 21 -23v-164q-6 -20 -25 -20l-67 16q-70 14 -163 29.5t-157 15.5q-135 0 -238.5 -60.5t-156.5 -142t-86 -189t-41 -180.5t-8 -134q0 -358 342 -359q63 0 125.5 4.5 t93.5 8.5l31 2l75 436h-327q-16 0 -17 16q0 8 24.5 86t24.5 82q6 20 25 21h532q16 0 17 -21l-133 -758q-4 -16 -25 -20q-195 -61 -481 -61q-569 -1 -569 507z" />
<glyph unicode="H" horiz-adv-x="1474" d="M82 20l242 1373q2 16 24 20q201 20 209 21q16 0 16 -21l-100 -573h614l97 553q4 20 24 20l209 21q16 0 17 -21l-246 -1393q-4 -20 -23 -20h-204q-18 0 -19 20l109 615h-615l-108 -615q-4 -20 -23 -20h-205q-18 0 -18 20z" />
<glyph unicode="I" horiz-adv-x="614" d="M82 20l242 1373q2 16 24 20q205 20 209 21q16 0 16 -21l-245 -1393q-4 -20 -23 -20h-205q-18 0 -18 20z" />
<glyph unicode="J" horiz-adv-x="772" d="M-74 20l13 46q33 121 36 122q4 16 23 17l55 -10q53 -10 84 -11q59 0 109.5 48.5t66.5 136.5l181 1024q4 20 24 20l209 21q16 0 16 -21l-184 -1044q-31 -172 -153.5 -280.5t-303.5 -108.5q-37 0 -76.5 5t-62.5 11l-20 4q-17 6 -17 20z" />
<glyph unicode="K" horiz-adv-x="1331" d="M82 20l242 1373q4 20 24 20l209 21q16 0 16 -21l-96 -553l639 553q27 20 45 21h256q16 0 17 -17q0 -10 -9 -18q-166 -131 -772 -682l453 -537q123 -149 123 -159q0 -21 -23 -21h-266q-27 0 -39 20l-465 609l-108 -609q-4 -20 -23 -20h-205q-18 0 -18 20z" />
<glyph unicode="L" horiz-adv-x="1116" d="M82 20l242 1373q4 20 24 20l209 21q16 0 16 -21l-213 -1208h656q16 0 16 -21l-49 -164q-6 -20 -22 -20h-861q-18 0 -18 20z" />
<glyph unicode="M" horiz-adv-x="1884" d="M82 20l242 1373q4 20 24 20l168 21h184q12 0 17 -21l172 -1003l-6 -144l47 144l520 983q10 16 25 20l198 21h154q16 0 16 -21l-246 -1393q-4 -20 -22 -20h-205q-18 0 -18 20l207 1168l-74 -184l-522 -984q-10 -20 -23 -20h-205q-14 0 -18 20l-174 984l-8 184l-207 -1168 q-4 -20 -23 -20h-205q-18 0 -18 20z" />
<glyph unicode="N" horiz-adv-x="1515" d="M82 20l242 1373q2 16 24 20l168 21h164q10 0 16 -21l312 -1024l16 -143l201 1147q2 16 24 20l209 21q16 0 17 -21l-246 -1393q-4 -20 -23 -20h-327q-12 0 -19 20l-311 1024l-14 144l-207 -1168q-4 -20 -23 -20h-205q-18 0 -18 20z" />
<glyph unicode="O" horiz-adv-x="1529" d="M109 496q0 111 20 221q129 737 786 737q545 0 545 -516q0 -111 -20 -221q-129 -737 -785 -737q-546 0 -546 516zM367 530q0 -346 323 -346q401 0 494 533q18 119 18 188q0 344 -323 344q-399 0 -494 -532q-18 -99 -18 -187z" />
<glyph unicode="P" d="M82 20l242 1373q2 16 24 20l168 21h266q264 0 366.5 -82t102.5 -226q0 -41 -12 -122q-12 -74 -31.5 -131.5t-63.5 -120t-107.5 -103.5t-169 -68.5t-240.5 -27.5h-205l-94 -533q-4 -20 -23 -20h-205q-18 0 -18 20zM459 758h205q168 0 238.5 66.5t90.5 179.5q8 49 8 81 q0 68 -58 106t-208 38h-194z" />
<glyph unicode="Q" horiz-adv-x="1531" d="M109 496q0 111 20 221q129 737 786 737q545 0 545 -516q0 -184 -45 -353t-143 -310.5t-238 -213.5q205 -298 205 -307q0 -21 -22 -20h-246q-27 0 -39 20l-148 234q-82 -8 -129 -8q-546 0 -546 516zM367 530q0 -346 323 -346q401 0 494 533q18 119 18 188q0 344 -323 344 q-399 0 -494 -532q-18 -99 -18 -187z" />
<glyph unicode="R" horiz-adv-x="1318" d="M82 20l242 1373q2 16 24 20l189 21h245q184 0 293 -37t145.5 -93.5t36.5 -144.5q0 -37 -10 -115q-20 -152 -106 -251t-217 -127q63 -84 92 -174q33 -115 59.5 -235t37.5 -178.5t13 -58.5q-4 -20 -22 -20h-225q-12 0 -19 20l-104 451q-12 55 -59.5 109.5t-116.5 54.5h-144 l-108 -615q-4 -20 -23 -20h-205q-18 0 -18 20zM473 840h205q178 0 241.5 51t79.5 153q2 14 2 41q0 45 -13 72t-69.5 49.5t-162.5 22.5h-215z" />
<glyph unicode="S" horiz-adv-x="1216" d="M59 86v160q0 20 23 20q2 0 30.5 -8t77 -20.5t104.5 -24.5t124.5 -20.5t128.5 -8.5q164 0 233.5 67.5t69.5 149.5q0 68 -65.5 111t-184.5 82q-84 27 -149.5 56.5t-131 75.5t-101.5 112.5t-36 148.5q0 31 6 68q33 190 168.5 294.5t415.5 104.5q248 0 356 -59q18 -8 19 -23 v-164q0 -20 -25 -20q-2 0 -21.5 6t-54 15.5t-78.5 18.5t-106.5 15t-126.5 6q-164 0 -233.5 -66.5t-69.5 -150.5q0 -63 68.5 -109t167 -80t197 -77t167 -124t68.5 -196q0 -31 -6 -67q-33 -190 -168 -294.5t-414 -104.5q-268 0 -432 79l-4 2q-17 7 -17 25z" />
<glyph unicode="T" horiz-adv-x="1148" d="M131 1229l29 164q2 16 24 20l168 21h901q16 0 17 -17q0 -6 -25.5 -96t-27.5 -92q-6 -20 -23 -21h-389l-211 -1188q-4 -20 -23 -20h-204q-18 0 -19 20l211 1188h-409q-19 1 -19 21z" />
<glyph unicode="U" horiz-adv-x="1443" d="M139 369q0 70 17 163l151 861q4 20 25 20l209 21q16 0 16 -21l-151 -860q-16 -92 -17 -152q0 -109 57.5 -163t200.5 -54q186 0 263 90.5t110 278.5l147 840q4 20 25 20l209 21q16 0 16 -21l-155 -881q-51 -297 -214 -424.5t-436 -127.5q-231 0 -352 91t-121 298z" />
<glyph unicode="V" horiz-adv-x="1353" d="M150 1393q4 16 24 20l217 21q16 0 19 -17l186 -1069v-143l45 143l578 1065q10 20 24 21h225q16 0 17 -21l-778 -1393q-10 -20 -23 -20h-246q-14 0 -18 20q-270 1365 -270 1373z" />
<glyph unicode="W" horiz-adv-x="2256" d="M166 1393q4 16 24 20l220 21q12 0 16 -21l129 -1065v-143l41 143l512 1045q10 16 25 20l178 21h102q12 0 17 -21l129 -1065v-143l40 143l517 1065q10 20 24 21h225q16 0 17 -21l-717 -1393q-10 -20 -23 -20h-245q-14 0 -19 20l-139 1065v144l-41 -144l-536 -1065 q-10 -20 -23 -20h-246q-14 0 -18 20q-209 1365 -209 1373z" />
<glyph unicode="X" horiz-adv-x="1318" d="M-61 20l81 99l242 283l285 335l-165 330l-124 249q-37 75 -37 77q2 16 25 20l219 21q18 0 27 -21l200 -430l13 -102l49 102l352 430q16 20 35 21h235q16 0 17 -21q0 -2 -69 -81l-218 -252l-293 -343l165 -334l140 -284l49 -99q-4 -20 -22 -20h-236q-20 0 -28 20l-213 472 l-13 102l-49 -102l-381 -472q-20 -20 -32 -20h-236q-18 0 -18 20z" />
<glyph unicode="Y" horiz-adv-x="1228" d="M141 1393q2 16 25 20l219 21q18 0 27 -21l213 -532l14 -103l47 103l401 532q16 20 35 21h226q16 0 16 -17q0 -6 -158 -209l-317 -403l-158 -201l-104 -584q-4 -20 -23 -20h-205q-18 0 -18 20l104 584q-344 779 -344 789z" />
<glyph unicode="Z" horiz-adv-x="1208" d="M-10 20l28 164q2 8 15 21l841 983l127 41h-757q-16 0 -17 20l25 144q2 16 24 20l189 21h758q16 0 16 -21l-29 -164q0 -8 -6 -14l-848 -989l-129 -41h799q16 0 16 -21l-49 -164q-6 -20 -22 -20h-963q-18 0 -18 20z" />
<glyph unicode="[" horiz-adv-x="679" d="M10 -205l299 1700q2 16 25 21l168 20h241q20 0 21 -20v-144q0 -20 -21 -20h-233l-246 -1393h225q16 0 17 -16l-10 -37l-22 -73q-11 -38 -13 -38q-6 -20 -25 -20h-409q-17 0 -17 20z" />
<glyph unicode="\" horiz-adv-x="770" d="M184 1413q4 20 25 21h194q12 0 17 -21l184 -1393q-4 -20 -22 -20h-195q-14 0 -18 20z" />
<glyph unicode="]" horiz-adv-x="681" d="M-63 -61q0 20 22 20h231l246 1393h-225q-16 0 -16 20l45 144q6 20 24 20h246l160 -20q16 -2 16 -21l-299 -1700q-4 -20 -25 -20h-405q-20 0 -20 20v144z" />
<glyph unicode="^" horiz-adv-x="1130" d="M78 610q0 8 133 209l264 398l133 196q14 20 35 21h143q20 0 27 -21l248 -799q-4 -20 -23 -20h-184q-23 0 -29 20l-147 512v103l-39 -103l-326 -512q-14 -20 -32 -20h-185q-18 0 -18 16z" />
<glyph unicode="_" horiz-adv-x="1103" d="M-123 -328l33 185h1022l-33 -185h-1022z" />
<glyph unicode="`" horiz-adv-x="1130" d="M451 1454q4 20 22 21h184q29 0 39 -21l154 -287q-4 -20 -25 -20h-143q-23 0 -37 20z" />
<glyph unicode="a" d="M61 328q0 70 23 192q20 119 53 206t94.5 164t163 115.5t240.5 38.5q63 0 126.5 -25.5t94.5 -51.5l33 -25l12 62q4 20 21 20h204q20 0 21 -20q-2 -10 -24 -137l-51 -301l-48 -281q-20 -129 -20 -162v-103q0 -20 -21 -20h-205q-20 0 -20 20v62q-143 -102 -287 -102 q-229 0 -319.5 92t-90.5 256zM315 379q0 -96 38 -145.5t139 -49.5q156 0 228.5 86t98.5 242q10 61 10 123q0 104 -43 154.5t-172 50.5q-141 0 -199.5 -82t-86.5 -246q-13 -70 -13 -133z" />
<glyph unicode="b" horiz-adv-x="1236" d="M31 16q0 2 8 19.5t20.5 57.5t20.5 91l231 1311q2 16 25 21q197 20 209 20q16 0 16 -20l-100 -574q131 102 282 102q221 0 310.5 -87t89.5 -248q0 -80 -21 -197q-23 -123 -54.5 -209t-92 -165t-164.5 -118.5t-254 -39.5q-68 0 -131.5 26.5t-93.5 54.5l-29 27 q-23 -53 -27 -68q-10 -20 -22 -20h-205q-18 0 -18 16zM373 393q0 -102 51 -155.5t168 -53.5q131 0 193.5 85t91.5 243q12 70 12 133q0 94 -41 144.5t-139 50.5q-268 0 -324 -328q-12 -66 -12 -119z" />
<glyph unicode="c" horiz-adv-x="1052" d="M61 336q0 66 19 176q20 121 57 209t104.5 166t183.5 117.5t279.5 39.5t276.5 -61q16 -6 16 -20v-164q0 -20 -22 -21l-49 17q-47 14 -120 29.5t-136 15.5q-176 0 -246 -82t-98 -246q-12 -61 -13 -115q0 -102 54.5 -157.5t185.5 -55.5q68 0 136.5 10.5t109.5 20.5l41 10 q18 0 18 -20v-158q0 -23 -22 -27q-10 -4 -57.5 -13t-123 -18t-137.5 -9q-252 0 -354.5 93t-102.5 263z" />
<glyph unicode="d" d="M59 311q0 70 23 201q23 123 53.5 209t91 165t165 118.5t253.5 39.5q147 0 250 -102l100 574q4 20 25 20l201 -20q16 -2 16 -21l-229 -1311q-10 -59 -11 -110v-49q0 -25 -22 -25h-205q-18 0 -18 20v70q-16 -12 -43 -30.5t-105 -49t-145 -30.5q-221 0 -310.5 85.5 t-89.5 245.5zM313 375q0 -190 181 -191q147 0 219.5 82t105.5 246q10 66 10 109q0 219 -219 219q-131 0 -193.5 -86t-88.5 -242q-15 -86 -15 -137z" />
<glyph unicode="e" horiz-adv-x="1138" d="M61 344q0 74 17 168q20 119 58 208t105.5 166t178 116.5t262.5 39.5q375 0 375 -366q0 -80 -15 -164l-14 -82q-4 -20 -27 -20h-686q0 -4 -1 -14.5t-1 -16.5q0 -94 52.5 -144.5t185.5 -50.5q45 0 98 4.5t96 10.5t79 12l59 10q23 4 24 4q16 0 17 -16q0 -8 -13 -49l-24 -80 l-13 -39q-6 -18 -24 -21q-150 -41 -334 -40q-248 0 -351.5 96t-103.5 268zM350 614h459q2 14 2 43q0 182 -164 183q-135 0 -199.5 -57.5t-97.5 -168.5z" />
<glyph unicode="f" horiz-adv-x="759" d="M72 840l49 164q6 20 24 20h185l20 123q31 186 132.5 297.5t279.5 111.5l129 -20q16 -8 16 -20q0 -4 -23.5 -85t-25.5 -83q-8 -16 -24 -17q-4 0 -16.5 5t-37 10.5t-55.5 5.5q-94 0 -129 -205l-21 -123h205q16 0 17 -20l-54 -164q-6 -20 -24 -21h-180l-115 -655 q-6 -37 -18.5 -73t-20.5 -54l-8 -17q-10 -20 -23 -20h-204q-18 0 -19 16l8 17q8 18 19.5 54t19.5 77l115 655h-205q-16 1 -16 21z" />
<glyph unicode="g" d="M23 -225q0 20 20 20q2 0 26 -6l60 -15q37 -9 82 -18.5t100.5 -15.5t104.5 -6q90 0 152.5 22.5t93 67.5t44 81t23.5 95l14 82q-12 -12 -35.5 -28.5t-97 -45t-151.5 -28.5q-221 0 -310.5 86t-89.5 245q0 74 23 201q23 123 53.5 209t91 165t165 118.5t253.5 39.5 q68 0 131.5 -26.5t91.5 -54.5l31 -27q23 53 27 68q10 20 24 20h205q16 0 16 -20q0 -2 -9 -22.5t-20.5 -58.5t-19.5 -83l-147 -840q-20 -117 -55 -196.5t-100.5 -145.5t-174 -97.5t-266.5 -31.5q-90 0 -174 15.5t-123 29.5l-41 16q-18 8 -18 21v164zM313 375q0 -190 181 -191 q268 0 325 328q10 68 10 115q0 106 -50 159.5t-169 53.5q-131 0 -193.5 -86t-88.5 -242q-15 -86 -15 -137z" />
<glyph unicode="h" horiz-adv-x="1214" d="M29 16l8 17q8 18 19.5 54t19.5 77l233 1331q4 20 25 21l209 20q16 0 16 -20l-100 -574q14 12 37.5 28.5t97.5 45t147 28.5q193 0 272 -67.5t79 -206.5q0 -78 -19 -176l-102 -574q-4 -20 -23 -20h-205q-18 0 -18 20l102 574q8 61 13 111q0 135 -133 135q-266 0 -310 -246 l-75 -430q-6 -37 -18.5 -73t-20.5 -54l-9 -17q-10 -20 -22 -20h-205q-18 0 -18 16z" />
<glyph unicode="i" horiz-adv-x="550" d="M66 66q0 47 8 98l143 819q4 20 25 21l209 20q16 0 16 -20l-148 -840q-8 -47 -8 -88v-35l2 -16q0 -25 -22 -25h-205q-12 0 -16 11.5t-4 54.5zM252 1284q0 18 2 27q10 59 60.5 101t109.5 42q51 0 85 -32.5t34 -84.5q0 -68 -51.5 -119t-118.5 -51q-53 0 -87 33t-34 84z" />
<glyph unicode="j" horiz-adv-x="548" d="M-270 -410l49 168q4 16 22 17q2 0 38 -10.5t59 -10.5q102 0 147 246l172 983q4 20 25 21l209 20q16 0 16 -20l-176 -1004q-35 -190 -138.5 -320.5t-275.5 -130.5q-35 0 -67.5 5.5t-49.5 11.5l-16 4q-14 8 -14 20zM252 1284q0 18 2 27q10 59 60.5 101t109.5 42 q51 0 85 -32.5t34 -84.5q0 -68 -51.5 -119t-118.5 -51q-53 0 -87 33t-34 84z" />
<glyph unicode="k" horiz-adv-x="1128" d="M29 16l8 17q8 18 19.5 54t19.5 77l233 1331q4 20 25 21l209 20q16 0 16 -20l-151 -861l426 349q27 20 45 20h274q16 0 16 -20q-4 -20 -569 -457q391 -500 391 -527q-4 -20 -22 -20h-246q-27 0 -39 20l-309 451l-53 -307q-6 -37 -18.5 -73t-20.5 -54l-9 -17 q-10 -20 -22 -20h-205q-18 0 -18 16z" />
<glyph unicode="l" horiz-adv-x="550" d="M66 66q0 47 8 98l233 1333q4 20 25 21l209 20q16 0 16 -20l-238 -1354q-8 -47 -8 -88v-35l2 -16q0 -25 -22 -25h-205q-12 0 -16 11.5t-4 54.5z" />
<glyph unicode="m" horiz-adv-x="1892" d="M51 20l150 840q4 29 4 82v57q0 25 24 25h201q18 0 19 -20v-76q12 12 35.5 31.5t100.5 52t158 32.5q283 0 332 -163q150 164 344 163q188 0 268 -66.5t80 -211.5q0 -70 -16 -172l-102 -574q-4 -20 -23 -20h-205q-18 0 -18 20l102 574q10 53 11 106q0 80 -33 110t-99 30 q-266 0 -309 -246l-102 -574q-4 -20 -23 -20h-205q-18 0 -18 20l102 574q10 53 11 106q0 80 -33 110t-98 30q-266 0 -310 -246l-102 -574q-4 -20 -23 -20h-204q-19 0 -19 20z" />
<glyph unicode="n" horiz-adv-x="1216" d="M51 20l150 840q2 16 3 44t1 36v59q0 25 24 25h201q18 0 19 -20v-76q12 12 35.5 31.5t100.5 52t158 32.5q188 0 268.5 -66.5t80.5 -211.5q0 -70 -17 -172l-102 -574q-4 -20 -23 -20h-205q-18 0 -18 20l102 574q10 53 11 106q0 80 -33 110t-98 30q-266 0 -310 -246 l-102 -574q-4 -20 -23 -20h-204q-19 0 -19 20z" />
<glyph unicode="o" horiz-adv-x="1206" d="M61 369q0 72 15 143q47 268 205.5 400t398.5 132q205 0 318.5 -98t113.5 -295q0 -66 -12 -139q-47 -268 -207 -400t-399 -132q-205 0 -319 96t-114 293zM309 391q0 -102 51.5 -154.5t167.5 -52.5q147 0 222 82t104 246q10 53 10 117q0 104 -51 157.5t-168 53.5 q-147 0 -221 -82t-102 -246q-13 -68 -13 -121z" />
<glyph unicode="p" horiz-adv-x="1236" d="M-29 -430l226 1270q8 43 8 106v53q0 25 24 25h205q14 0 19 -20v-68l43 31q27 18 103.5 47.5t143.5 29.5q221 0 310.5 -87t89.5 -248q0 -80 -21 -197q-23 -123 -54.5 -209t-92 -165t-164.5 -118.5t-253.5 -39.5t-248.5 102l-94 -533q-4 -20 -25 -20l-200 20q-19 3 -19 21z M373 399q0 -215 219 -215q131 0 193.5 85t91.5 243q12 70 12 133q0 94 -41 144.5t-139 50.5q-147 0 -219 -83t-105 -245q-12 -62 -12 -113z" />
<glyph unicode="q" d="M59 311q0 70 23 201q23 123 53.5 209t91 165t165 118.5t253.5 39.5q68 0 131.5 -26.5t91.5 -54.5l31 -27q23 53 27 68q10 20 24 20h205q16 0 16 -16q0 -2 -8 -18.5t-20.5 -56.5t-20.5 -93l-225 -1270q-2 -16 -23 -21q-195 -20 -206 -20q-18 0 -19 20l94 533 q-137 -102 -284 -102q-221 0 -310.5 85.5t-89.5 245.5zM313 375q0 -190 181 -191q268 0 325 328q10 68 10 115q0 104 -50 158.5t-169 54.5q-131 0 -193.5 -86t-88.5 -242q-15 -86 -15 -137z" />
<glyph unicode="r" horiz-adv-x="884" d="M53 20l146 820l4 100v59q0 25 24 25h207q18 0 19 -20v-74q125 115 292 114q27 0 63 -5t56 -11l23 -4q16 -6 16 -20v-164q0 -20 -22 -21l-70 10q-72 10 -100 11q-129 0 -209 -62.5t-101 -183.5l-102 -574q-4 -20 -23 -20h-204q-19 0 -19 20z" />
<glyph unicode="s" horiz-adv-x="978" d="M29 61v164q0 20 22 21q2 0 27.5 -6.5t67.5 -15.5t91.5 -18t110 -15.5t111.5 -6.5q139 0 139 99q0 37 -34 59.5t-109 46.5q-74 23 -122 43.5t-101.5 55t-80 86t-26.5 118.5q0 162 109.5 257t314.5 95q82 0 162 -10t120 -20l39 -10q16 -6 17 -21v-164q0 -20 -21 -20 q-2 0 -23 4l-56 10q-34 6 -75.5 12t-95 10.5t-102.5 4.5q-139 0 -139 -99q0 -37 34.5 -60.5t108.5 -45.5q74 -25 121 -44.5t101.5 -55t81 -87t26.5 -116.5q0 -152 -113.5 -252t-310.5 -100q-100 0 -194.5 15t-139.5 30l-45 16q-16 6 -16 20z" />
<glyph unicode="t" horiz-adv-x="808" d="M76 840v164q0 20 22 20h209l64 369q4 20 24 20l209 21q16 0 17 -21l-68 -389h201q20 0 20 -20v-164q0 -20 -22 -21h-236l-76 -430q-10 -57 -10 -92q0 -113 76 -113q23 0 73 10.5t52 10.5q18 0 18 -17v-163q0 -18 -24 -25q-92 -20 -174 -20q-270 0 -271 272q0 55 15 137 l75 430h-176q-18 1 -18 21z" />
<glyph unicode="u" horiz-adv-x="1214" d="M90 256q0 76 19 174l96 553q2 16 24 21l209 20q16 0 17 -20l-101 -574q-12 -68 -12 -111q0 -78 33 -106.5t98 -28.5q129 0 210 62.5t101 183.5l97 553q4 20 24 21l209 20q16 0 16 -20l-147 -840q-8 -47 -8 -88v-56q0 -20 -21 -20h-204q-20 0 -21 20v76 q-12 -12 -34.5 -31.5t-98.5 -52t-158 -32.5q-190 0 -269 65.5t-79 210.5z" />
<glyph unicode="v" horiz-adv-x="1060" d="M92 983q2 16 25 21q199 20 209 20q12 0 16 -20l115 -656v-143l47 143l350 656q10 20 25 20h215q16 0 16 -16q0 -8 -136 -255l-272 -491l-135 -242q-10 -20 -22 -20h-246q-14 0 -18 20z" />
<glyph unicode="w" horiz-adv-x="1753" d="M100 983q2 16 25 21q199 20 209 20q12 0 16 -20l94 -656v-143l48 143l307 635q10 16 24 21l158 20h80q12 0 16 -20l84 -656v-143l47 143l330 656q10 20 25 20h215q16 0 16 -16q0 -8 -131 -255l-262 -491l-129 -242q-10 -20 -23 -20h-245q-14 0 -19 20l-78 615v164 l-59 -164l-293 -615q-10 -20 -23 -20h-245q-14 0 -19 20z" />
<glyph unicode="x" horiz-adv-x="1081" d="M-61 20q8 18 444 506q-233 426 -233 457q2 16 24 21q209 20 219 20q18 0 27 -20l119 -259l12 -102l49 102l219 259q16 20 35 20h225q16 0 17 -20q-2 -6 -420 -478q266 -504 266 -506q-4 -20 -22 -20h-226q-16 0 -28 20l-146 279l-12 102l-49 -102l-244 -279 q-20 -20 -33 -20h-225q-18 0 -18 20z" />
<glyph unicode="y" horiz-adv-x="1056" d="M-106 -410l49 170q4 14 22 15l41 -11q41 -10 66 -10q51 0 106 51.5t84 102.5l31 51l-209 1024q2 16 25 21q188 20 198 20q18 0 27 -20l121 -666l-6 -143l47 143l350 666q10 20 24 20h215q16 0 17 -20q-2 -10 -549 -1004q-57 -104 -99 -167.5t-106.5 -137.5t-141.5 -110 t-169 -36l-129 21q-14 8 -14 20z" />
<glyph unicode="z" horiz-adv-x="1036" d="M-14 20l28 164q2 8 15 21l589 573l89 41h-539q-16 0 -16 21l24 143q2 16 25 21l184 20h598q16 0 16 -20l-28 -164q-2 -8 -15 -21l-587 -573l-90 -41h579q16 0 16 -21l-49 -164q-6 -20 -22 -20h-799q-18 0 -18 20z" />
<glyph unicode="{" horiz-adv-x="745" d="M68 573l28 164q4 20 25 21q66 0 123 45t69 119l66 368q23 125 108.5 185.5t180.5 60.5h139q20 0 20 -20v-144q0 -20 -20 -20h-111q-80 0 -96 -82l-70 -389q-12 -63 -45.5 -114.5t-62.5 -70.5l-29 -20l-106 -21l98 -20q8 -6 20.5 -17.5t32 -51.5t19.5 -89q0 -14 -4 -47 l-70 -389q-2 -10 -2 -25q0 -57 70 -57h102q16 0 16 -20l-45 -144q-6 -20 -24 -20h-144q-82 0 -144 47t-62 145q0 35 4 53l65 369q2 10 2 31q0 61 -40 97t-97 36q-16 0 -16 20z" />
<glyph unicode="|" horiz-adv-x="571" d="M66 -20l266 1517q4 20 24 21l189 20q16 0 16 -20l-266 -1518q-6 -20 -25 -20l-188 -21q-16 1 -16 21z" />
<glyph unicode="}" horiz-adv-x="751" d="M-61 -61q0 20 20 20h115q80 0 96 82l70 389q10 63 44.5 114.5t60.5 71t32 19.5l106 20l-98 21l-20.5 16t-32 51t-19.5 91q0 31 4 47l70 389q2 8 2 22q0 59 -70 60h-98q-20 0 -20 20l45 144q6 20 24 20h144q82 0 144.5 -48t62.5 -147q0 -14 -5 -51l-65 -368q-4 -20 -4 -33 q0 -59 41 -95t98 -36q16 0 16 -21l-28 -164q-4 -20 -25 -20q-66 0 -123 -45t-69 -119l-66 -369q-23 -125 -108.5 -185t-180.5 -60h-143q-20 0 -20 20v144z" />
<glyph unicode="~" horiz-adv-x="1261" d="M104 512q47 287 336 287q129 0 289 -103q94 -61 133 -61q41 0 66.5 16.5t35 35l18.5 34.5t22 16h143q16 0 16 -20q-51 -287 -336 -287q-57 0 -129.5 25.5t-115.5 52.5l-45 24q-92 61 -131 62q-53 0 -81 -25.5t-38.5 -51t-22.5 -25.5h-143q-17 0 -17 20z" />
<glyph unicode="&#xa1;" horiz-adv-x="550" d="M-41 -393l4 6q2 6 7 18.5t10.5 28.5t11.5 42l12 52l146 819q4 20 24 21q199 20 207 20q18 0 18 -20l-149 -840q-14 -82 -45 -143q-10 -20 -25 -21h-205q-16 1 -16 17zM184 874q0 18 2 27q8 59 58.5 101t109.5 42q53 0 87 -33.5t34 -84.5q0 -68 -52 -118t-118 -50 q-53 0 -87 32.5t-34 83.5z" />
<glyph unicode="&#xa2;" horiz-adv-x="1056" d="M61 336q0 66 19 176q18 109 50 190.5t88 156.5t150.5 120t223.5 59l31 170q2 16 22 21q164 20 168 20q16 0 16 -20l-32 -191q47 -8 93 -21t68 -24l23 -10q16 -6 16 -20v-164q0 -20 -22 -21q-4 0 -35 9l-82 24q-51 14 -98 20l-113 -643q49 4 94 13.5t71 16.5t28 7 q18 0 18 -20v-158q0 -18 -24 -27q-96 -25 -224 -36l-32 -189q-4 -20 -25 -20h-164q-16 0 -16 20l33 191q-188 20 -266.5 110t-78.5 240zM313 395q0 -158 131 -196l111 628q-111 -27 -159 -103.5t-70 -211.5q-13 -62 -13 -117z" />
<glyph unicode="&#xa3;" horiz-adv-x="1155" d="M23 20l28 164q4 20 25 21q70 0 127 131t92 299h-164q-16 0 -16 16q0 8 24.5 86t24.5 82q6 20 24 21h144q18 102 40.5 183t65.5 165t101.5 139t147.5 91t204 36q184 0 278 -41q16 -2 17 -20l-49 -164q-6 -20 -23 -21q-117 41 -260 41q-66 0 -116 -35.5t-80.5 -102.5 t-48 -127t-31.5 -144h327q16 0 17 -17q0 -10 -25 -88t-25 -80q-6 -20 -24 -20h-307q-66 -311 -129 -389l-111 -41h655q16 0 17 -21l-49 -164q-6 -20 -23 -20h-860q-18 0 -18 20z" />
<glyph unicode="&#xa4;" horiz-adv-x="1388" d="M115 323.5q0 8.5 10 16.5l123 104q-18 61 -19 140q0 59 13 133q31 164 102 270l-74 92q-4 4 -4 11q0 8 10 18q117 125 123 131q10 6 16.5 6t12.5 -6l80 -98q123 68 295 67q170 0 266 -65l96 80q6 6 15 6q4 0 14 -6q106 -94 113 -101q4 -4 4 -14q0 -6 -8 -14l-123 -105 q18 -55 18 -131q0 -111 -34 -227.5t-81 -188.5l72 -88q4 -4 4 -10t-8 -18q-117 -125 -125 -131q-6 -6 -14 -7q-12 0 -15 7l-77 96q-123 -66 -291 -66q-176 0 -271 66l-96 -80q-6 -6 -16 -6q-6 0 -13 6q-109 94 -114 100q-4 4 -4 12.5zM459 627q0 -100 49 -158.5t151 -58.5 q141 0 224.5 114.5t83.5 282.5q0 217 -199 217q-123 0 -199.5 -85t-101.5 -222q-8 -41 -8 -90z" />
<glyph unicode="&#xa5;" horiz-adv-x="1300" d="M133 246l49 164q6 20 25 20h287l30 174q-4 4 -8 10h-299q-16 0 -16 17q0 8 24.5 86t24.5 82q6 20 24 20h154q-248 559 -248 574q2 16 25 20l219 21q18 0 27 -21l213 -532l14 -103l47 103l401 532q16 20 35 21h225q16 0 17 -21q0 -4 -465 -594h176q16 0 16 -20l-49 -164 q-6 -20 -24 -21h-281l-6 -10l-31 -174h308q16 0 16 -16q0 -10 -24.5 -88t-24.5 -80q-6 -20 -25 -21h-287l-36 -205q-4 -20 -23 -20h-205q-18 0 -18 20l37 205h-307q-17 1 -17 21z" />
<glyph unicode="&#xa6;" horiz-adv-x="677" d="M117 -20l100 573q2 16 25 20q184 20 188 21q16 0 16 -21l-100 -573q-6 -16 -24 -20q-184 -20 -189 -21q-16 1 -16 21zM283 922l100 573q2 16 25 21q184 20 188 20q16 0 16 -20l-100 -574q-2 -16 -25 -20q-184 -20 -188 -21q-16 1 -16 21z" />
<glyph unicode="&#xa7;" horiz-adv-x="1091" d="M88 -20v163q0 20 21 21q215 -41 372 -41q76 0 118 27.5t42 74.5q0 51 -53 85t-129 56.5t-152 50t-129 85t-53 141.5q0 86 47 170t127 129q-70 53 -70 162q0 154 117 252t330 98q82 0 167 -10t130 -21l45 -10q16 -6 16 -20v-164q0 -20 -20 -21l-62 11q-61 10 -151 20 t-162 10q-76 0 -118 -27.5t-42 -74.5q0 -51 53.5 -86t129 -58.5t150.5 -52t128 -85t53 -138.5q0 -88 -47 -170t-123 -127q70 -53 70 -149q0 -160 -115.5 -261.5t-333.5 -101.5q-82 0 -166.5 10.5t-130.5 20.5l-43 10q-16 7 -16 21zM375 680q0 -84 200 -123l29 -4q6 0 15.5 1 t34 9t43 21.5t33.5 42t15 65.5q0 43 -57 75t-115 42l-55 10q-6 0 -15 -1t-34 -9t-44 -21.5t-34.5 -42t-15.5 -65.5z" />
<glyph unicode="&#xa8;" horiz-adv-x="1130" d="M336 1284q0 18 2 27q10 59 60.5 101t109.5 42q51 0 85 -32.5t34 -84.5q0 -68 -51.5 -119t-118.5 -51q-53 0 -87 33t-34 84zM745 1284q0 18 3 27q10 59 60 101t110 42q51 0 84.5 -32.5t33.5 -84.5q0 -68 -51 -119t-119 -51q-53 0 -87 33t-34 84z" />
<glyph unicode="&#xa9;" horiz-adv-x="1685" d="M106 522q0 92 19 195q29 160 90 289t162.5 232t258.5 159.5t357 56.5q328 0 476.5 -145.5t148.5 -397.5q0 -92 -19 -194q-29 -160 -89 -289t-161.5 -232.5t-258 -159.5t-357.5 -56q-330 0 -478.5 145t-148.5 397zM336 573q0 -389 432 -389q160 0 283 57.5t194.5 155 t107.5 215t36 250.5q0 178 -102.5 282.5t-330.5 104.5q-272 0 -417.5 -146.5t-188.5 -385.5q-14 -87 -14 -144zM459 580q0 51 14 137q37 205 145.5 317.5t339.5 112.5q127 0 236 -62q20 -8 20 -30v-129q0 -25 -26 -25q-2 0 -46 20.5t-105.5 41t-106.5 20.5 q-117 0 -172.5 -68.5t-77.5 -197.5q-8 -41 -8 -88q0 -178 164 -178q49 0 110.5 10t97.5 20l37 11q14 0 15 -13v-129q0 -18 -23 -22q-131 -41 -266 -41q-188 0 -268 76t-80 217z" />
<glyph unicode="&#xaa;" horiz-adv-x="825" d="M137 899q0 129 93.5 209t240.5 80l139 -17l8 48q0 2 1.5 8t1.5 8q0 55 -111 55q-37 0 -100.5 -10t-108.5 -20l-45 -11q-16 0 -16 17l32 118q4 12 21 19q133 51 246 51q125 0 197.5 -48t72.5 -136q0 -12 -4 -41l-64 -369q-4 -16 -4 -45q0 -14 2 -27.5t2 -21.5l2 -8 q-4 -20 -24 -21h-152q-6 0 -12 6.5t-6 14.5v41q-100 -72 -201 -72q-76 0 -143.5 40t-67.5 132zM324 938q0 -47 53 -47q92 0 143 24.5t66 108.5h-144q-118 0 -118 -86z" />
<glyph unicode="&#xab;" horiz-adv-x="1130" d="M51 569q0 12 12 25l336 410q14 20 35 20h209q16 0 16 -20l-362 -431l211 -430q-4 -20 -25 -20h-209q-18 0 -26 20l-193 410q-4 8 -4 16zM502 569q0 12 12 25l336 410q14 20 35 20h209q16 0 16 -20l-362 -431l210 -430q-4 -20 -24 -20h-209q-18 0 -27 20l-192 410 q-4 8 -4 16z" />
<glyph unicode="&#xac;" horiz-adv-x="1267" d="M94 692q0 8 25.5 86t25.5 82q6 20 23 21h983q18 0 18 -21l-106 -594q-4 -20 -23 -20h-184q-18 0 -18 20l73 410h-798q-19 0 -19 16z" />
<glyph unicode="&#xad;" horiz-adv-x="899" d="M141 487q0 6 13 49l24 80l12 39q6 20 25 21h512q16 0 16 -17q0 -8 -12 -50l-24 -81l-13 -36q-6 -20 -24 -21h-512q-17 0 -17 16z" />
<glyph unicode="&#xae;" horiz-adv-x="1353" d="M160 758q0 57 14 143q45 252 204 402.5t447 150.5q244 0 356.5 -109.5t112.5 -297.5q0 -143 -40 -266.5t-118.5 -221.5t-208.5 -154.5t-298 -56.5q-469 0 -469 410zM348 793q0 -281 311 -281q229 0 338 140.5t109 359.5q0 279 -309 278q-369 0 -439 -389 q-10 -61 -10 -108zM473 614l105 584q4 20 22 21l84 10h80q217 0 217 -142q0 -156 -158 -227q29 -18 39 -61q49 -172 49 -185q-4 -20 -22 -20h-113q-14 0 -18 20l-49 185q-8 41 -54 41l-41 -226q-4 -20 -22 -20h-103q-16 0 -16 20zM676 963h41q119 0 119 90q0 53 -93 53h-41z " />
<glyph unicode="&#xaf;" horiz-adv-x="1132" d="M383 1204q0 6 47 148q6 20 25 20h512q16 0 16 -20q-43 -164 -70 -164h-512q-18 0 -18 16z" />
<glyph unicode="&#xb0;" horiz-adv-x="811" d="M164 1081q0 33 6 66q25 135 123 221t260 86q139 0 208.5 -65.5t69.5 -174.5q0 -158 -103 -266t-284 -108q-141 0 -210.5 65t-69.5 176zM391 1114q0 -90 86 -90q57 0 92 46t35 112q0 88 -84 88q-51 0 -82.5 -35t-42.5 -88q-4 -25 -4 -33z" />
<glyph unicode="&#xb1;" horiz-adv-x="1286" d="M18 16q0 8 25 86t25 82q6 20 24 21h983q16 0 17 -21l-50 -164q-6 -20 -22 -20h-983q-19 0 -19 16zM131 651q0 8 24.5 86t24.5 82q6 20 25 21h368l50 286q6 16 24 21q180 20 189 20q16 0 16 -20l-53 -307h389q16 0 16 -17q0 -10 -24.5 -88t-24.5 -80q-6 -20 -25 -20h-368 l-51 -287q-2 -16 -23 -20q-180 -20 -188 -21q-16 0 -17 21l54 307h-390q-16 0 -16 16z" />
<glyph unicode="&#xb2;" horiz-adv-x="843" d="M115 594l28 164q12 74 62.5 131t114 92t126 65.5t109.5 68.5t55 83q0 72 -110 72q-37 0 -97.5 -10.5t-107.5 -20.5t-49 -10q-16 0 -17 16q0 8 22.5 76t22.5 72q6 12 25 20q119 41 233 41q309 0 310 -197q0 -74 -23.5 -130t-76 -99t-87 -64.5t-106.5 -56.5 q-193 -96 -201 -149h389q16 0 17 -17q0 -2 -20.5 -73.5t-22.5 -73.5q-8 -20 -27 -21h-553q-16 1 -16 21z" />
<glyph unicode="&#xb3;" horiz-adv-x="804" d="M102 594l48 143q6 20 24 21q2 0 42 -5l87 -10.5t72 -5.5q139 0 139 105q0 80 -147 80h-93q-16 0 -16 20l21 123q2 16 24 20l117 21q162 27 162 115q0 29 -27 39t-86 10q-31 0 -89 -10.5t-101 -20.5l-43 -10q-16 0 -17 16q0 8 22.5 76t22.5 72q6 12 25 20q6 4 31.5 12.5 t79 18.5t102.5 10q168 0 239.5 -46t71.5 -138q0 -170 -162 -246q90 -51 90 -158q0 -14 -4 -47q-23 -131 -112.5 -198.5t-282.5 -67.5q-49 0 -104.5 5t-85.5 11l-31 4q-19 5 -19 21z" />
<glyph unicode="&#xb4;" horiz-adv-x="1130" d="M471 1167q2 10 256 287q16 20 43 21h184q18 0 19 -21q-2 -10 -297 -287q-20 -20 -45 -20h-144q-16 0 -16 20z" />
<glyph unicode="&#xb5;" horiz-adv-x="1243" d="M0 -293q0 41 8 88l209 1188q2 16 25 21l209 20q16 0 16 -20l-100 -574q-12 -68 -13 -111q0 -78 33 -106.5t98 -28.5q129 0 210 62.5t102 183.5l96 553q4 20 25 21l208 20q16 0 17 -20l-148 -840q-8 -47 -8 -88v-56q0 -20 -20 -20h-205q-20 0 -21 20v76 q-12 -12 -34.5 -31.5t-98.5 -52t-157 -32.5q-92 0 -162 16l-35 -201q-8 -47 -8 -86q0 -14 1 -27.5t3 -21.5v-8q-6 -20 -25 -21h-205q-8 0 -12 3.5t-6 19.5t-2 53z" />
<glyph unicode="&#x3bc;" horiz-adv-x="1243" d="M0 -293q0 41 8 88l209 1188q2 16 25 21l209 20q16 0 16 -20l-100 -574q-12 -68 -13 -111q0 -78 33 -106.5t98 -28.5q129 0 210 62.5t102 183.5l96 553q4 20 25 21l208 20q16 0 17 -20l-148 -840q-8 -47 -8 -88v-56q0 -20 -20 -20h-205q-20 0 -21 20v76 q-12 -12 -34.5 -31.5t-98.5 -52t-157 -32.5q-92 0 -162 16l-35 -201q-8 -47 -8 -86q0 -14 1 -27.5t3 -21.5v-8q-6 -20 -25 -21h-205q-8 0 -12 3.5t-6 19.5t-2 53z" />
<glyph unicode="&#xb6;" horiz-adv-x="1218" d="M123 922q0 512 635 512h266l160 -21q16 -2 16 -20l-270 -1536q-4 -20 -25 -21h-184q-16 0 -16 21l241 1372h-143l-242 -1372q-4 -20 -24 -21h-185q-16 0 -16 21l135 764q-348 39 -348 301zM375 977q0 -113 133 -146l67 386q-200 -47 -200 -240z" />
<glyph unicode="&#xb7;" horiz-adv-x="540" d="M125 590q0 16 2 24q10 59 60.5 101.5t109.5 42.5q51 0 85 -33t34 -84q0 -70 -51.5 -120t-118.5 -50q-53 0 -87 34t-34 85z" />
<glyph unicode="&#xb8;" horiz-adv-x="1134" d="M129 -430l59 106q8 16 25 17q2 0 31.5 -10.5t76 -20.5t91.5 -10q33 0 52 20.5t19 55.5q0 47 -51 47h-160q-16 0 -16 16q109 217 115 219h194l-28 -51l-76 -20h41q70 0 119 -54.5t49 -134.5q0 -104 -86 -183t-203 -79q-55 0 -113.5 15.5t-89.5 29.5l-31 16q-18 9 -18 21z " />
<glyph unicode="&#xb9;" horiz-adv-x="618" d="M147 1247q0 12 11 19l264 147q184 20 188 21q16 0 17 -21l-144 -819q-4 -20 -24 -21h-174q-16 0 -17 21l115 655l-68 -92q-125 -66 -135 -65q-14 0 -16 14q-17 121 -17 141z" />
<glyph unicode="&#xba;" horiz-adv-x="862" d="M156 983q0 41 10 102q66 369 414 369q293 0 292 -266q0 -41 -10 -103q-33 -184 -140.5 -276t-272.5 -92q-293 0 -293 266zM342 1008q0 -127 135 -127q111 0 160 79.5t49 202.5q0 127 -135 127q-96 0 -140 -53t-61 -152q-8 -38 -8 -77z" />
<glyph unicode="&#xbb;" horiz-adv-x="1128" d="M8 143l363 430l-211 431q4 20 24 20h209q18 0 27 -20l192 -410q4 -12 4 -16q0 -12 -12 -25l-336 -410q-14 -20 -35 -20h-208q-17 0 -17 20zM459 143l362 430l-211 431q4 20 25 20h209q18 0 26 -20l193 -410q4 -12 4 -16q0 -12 -12 -25l-336 -410q-14 -20 -35 -20h-209 q-16 0 -16 20z" />
<glyph unicode="&#xbc;" horiz-adv-x="1720" d="M145 20l1131 1393q18 20 35 21h194q16 0 17 -17q0 -10 -284 -358l-566 -694l-281 -345q-14 -20 -33 -20h-194q-19 0 -19 20zM156 1247q0 12 10 19l264 147q184 20 188 21q16 0 17 -21l-143 -819q-4 -20 -25 -21h-174q-16 0 -17 21l115 655l-67 -92q-125 -66 -136 -65 q-14 0 -16 14q-16 121 -16 141zM817 225l21 123l407 492q14 18 33 20l186 21h82q18 0 19 -17l-84 -475h102q16 0 16 -16l-10 -37l-21 -73q-11 -38 -14 -38q-6 -20 -24 -20h-82l-33 -185q-4 -20 -22 -20h-164q-18 0 -19 20l33 185h-409q-17 0 -17 20zM1051 389h225l57 328 l-35 -82l-182 -225z" />
<glyph unicode="&#xbd;" horiz-adv-x="1810" d="M145 20l1131 1393q18 20 35 21h194q16 0 17 -17q0 -10 -284 -358l-566 -694l-281 -345q-14 -20 -33 -20h-194q-19 0 -19 20zM156 1247q0 12 10 19l264 147q184 20 188 21q16 0 17 -21l-143 -819q-4 -20 -25 -21h-174q-16 0 -17 21l115 655l-67 -92q-125 -66 -136 -65 q-14 0 -16 14q-16 121 -16 141zM983 20l29 164q12 74 62 131.5t113.5 92t127 65.5t109.5 69t55 83q0 72 -111 71q-37 0 -97.5 -10t-106.5 -20.5t-48 -10.5q-16 0 -16 21l45 143q8 14 24 21q117 41 232 41q309 0 309 -195q0 -74 -23.5 -131t-74.5 -100t-88 -64.5t-107 -56.5 q-188 -92 -200 -150h389q18 0 18 -20l-47 -144q-8 -20 -23 -20h-553q-18 0 -18 20z" />
<glyph unicode="&#xbe;" horiz-adv-x="1855" d="M96 590l10 37l22 72q11 38 13 38q6 20 25 21q2 0 42 -5l87 -10.5t72 -5.5q139 0 139 105q0 80 -148 80h-92q-16 0 -16 20l20 123q2 16 25 20l117 21q162 27 161 115q0 29 -26.5 39t-85.5 10q-31 0 -89.5 -10.5t-101.5 -20.5l-43 -10q-16 0 -16 16q0 8 22.5 76t22.5 72 q6 12 25 20q6 4 31.5 12.5t78.5 18.5t103 10q168 0 239.5 -46t71.5 -138q0 -170 -162 -246q90 -51 90 -158q0 -14 -4 -47q-23 -131 -113 -198.5t-282 -67.5q-49 0 -104.5 5t-86.5 11l-30 4q-17 5 -17 17zM281 20l1130 1393q18 20 35 21h194q16 0 17 -17q0 -10 -284 -358 l-566 -694l-281 -345q-14 -20 -32 -20h-195q-18 0 -18 20zM952 225l21 123l407 492q14 18 33 20l186 21h82q18 0 19 -17l-84 -475h102q16 0 17 -16l-11 -37l-21 -73q-11 -38 -13 -38q-6 -20 -25 -20h-82l-33 -185q-4 -20 -22 -20h-164q-18 0 -18 20l32 185h-409 q-17 0 -17 20zM1186 389h225l57 328l-34 -82l-183 -225z" />
<glyph unicode="&#xbf;" horiz-adv-x="983" d="M-82 -139q0 57 12 119q14 80 63.5 146.5t111.5 113.5l125 92q62 45 111.5 106.5t61.5 134.5q4 20 25 21l207 20q18 0 18 -16l-2 -12l-2 -13q-20 -102 -73.5 -184t-117 -133t-124 -93t-105.5 -88t-53 -95q-6 -33 -6 -62q0 -70 47 -106.5t168 -36.5q174 0 399 61 q18 0 19 -16q0 -8 -24.5 -86t-24.5 -82q-6 -12 -25 -21q-160 -61 -381 -61q-238 0 -334 76t-96 215zM438 874q0 68 51.5 119t118.5 51q53 0 87 -33.5t34 -84.5q0 -16 -2 -25q-10 -59 -59 -101t-109 -42q-53 0 -87 32.5t-34 83.5z" />
<glyph unicode="&#xc0;" horiz-adv-x="1372" d="M-88 20l766 1373q10 16 24 20l179 21h80q12 0 16 -21l287 -1393q-4 -20 -23 -20h-215q-14 0 -18 20l-78 390h-549l-213 -390q-10 -20 -23 -20h-215q-18 0 -18 20zM494 614h395l-92 471l6 144l-47 -144zM567 1864q4 20 23 20h184q29 0 39 -20l154 -287q-4 -20 -25 -21 h-143q-23 0 -37 21z" />
<glyph unicode="&#xc1;" horiz-adv-x="1372" d="M-88 20l766 1373q10 16 24 20l179 21h80q12 0 16 -21l287 -1393q-4 -20 -23 -20h-215q-14 0 -18 20l-78 390h-549l-213 -390q-10 -20 -23 -20h-215q-18 0 -18 20zM494 614h395l-92 471l6 144l-47 -144zM762 1577q2 10 256 287q16 20 43 20h184q18 0 19 -20 q-2 -10 -297 -287q-20 -20 -45 -21h-144q-16 1 -16 21z" />
<glyph unicode="&#xc2;" horiz-adv-x="1372" d="M-88 20l766 1373q10 16 24 20l179 21h80q12 0 16 -21l287 -1393q-4 -20 -23 -20h-215q-14 0 -18 20l-78 390h-549l-213 -390q-10 -20 -23 -20h-215q-18 0 -18 20zM494 614h395l-92 471l6 144l-47 -144zM557 1577q2 10 256 287q20 20 43 20h123q25 0 39 -20l153 -287 q-4 -20 -24 -21h-164q-27 0 -37 21l-47 94v90l-39 -92l-78 -92q-16 -20 -45 -21h-164q-16 1 -16 21z" />
<glyph unicode="&#xc3;" horiz-adv-x="1372" d="M-88 20l766 1373q10 16 24 20l179 21h80q12 0 16 -21l287 -1393q-4 -20 -23 -20h-215q-14 0 -18 20l-78 390h-549l-213 -390q-10 -20 -23 -20h-215q-18 0 -18 20zM494 614h395l-92 471l6 144l-47 -144zM496 1597q18 111 89.5 178.5t178.5 67.5q51 0 144 -51t114 -51 q72 0 82 61q4 20 24 21h123q16 0 17 -21q-18 -111 -90 -178.5t-179 -67.5q-51 0 -144 51.5t-114 51.5q-74 0 -82 -62q-4 -20 -24 -20h-121q-18 0 -18 20z" />
<glyph unicode="&#xc4;" horiz-adv-x="1372" d="M-88 20l766 1373q10 16 24 20l179 21h80q12 0 16 -21l287 -1393q-4 -20 -23 -20h-215q-14 0 -18 20l-78 390h-549l-213 -390q-10 -20 -23 -20h-215q-18 0 -18 20zM494 614h395l-92 471l6 144l-47 -144zM535 1673q0 18 2 27q10 59 60 101t110 42q51 0 84.5 -32.5 t33.5 -84.5q0 -68 -51 -119t-119 -51q-53 0 -86.5 33t-33.5 84zM944 1673q0 18 2 27q10 59 60.5 101t109.5 42q51 0 85 -32.5t34 -84.5q0 -68 -51 -119t-119 -51q-53 0 -87 33t-34 84z" />
<glyph unicode="&#xc5;" horiz-adv-x="1372" d="M-88 20l766 1373q10 16 24 20l179 21h80q12 0 16 -21l287 -1393q-4 -20 -23 -20h-215q-14 0 -18 20l-78 390h-549l-213 -390q-10 -20 -23 -20h-215q-18 0 -18 20zM494 614h395l-92 471l6 144l-47 -144zM647 1710q0 35 4 51q18 96 88 161t197 65q211 0 211 -172 q0 -119 -73 -199t-218 -80q-111 0 -160 48t-49 126zM813 1741q0 -61 70 -62q47 0 72.5 31t25.5 70q0 63 -70 63q-84 0 -96 -82q-2 -6 -2 -20z" />
<glyph unicode="&#xc6;" horiz-adv-x="1757" d="M-88 20l766 1373q10 16 24 20l177 21h854q20 0 20 -21v-164q0 -20 -20 -20h-697v-389h557q16 0 17 -21l-29 -164q-4 -20 -25 -20h-520v-430h506q16 0 17 -21l-50 -164q-6 -20 -22 -20h-678q-18 0 -18 20v390h-410l-213 -390q-10 -20 -23 -20h-215q-18 0 -18 20zM492 614 h299v594l-33 -123z" />
<glyph unicode="&#xc7;" horiz-adv-x="1282" d="M106 481q0 88 25 236q18 106 44 191t86.5 192.5t142 180.5t220 123t314.5 50q80 0 164 -15.5t127 -29.5l45 -16q14 -6 18 -21q-3 -13 -3 -48v-18v-14q0 -41 -5 -70q-6 -34 -24 -34l-62 16q-61 14 -147 29.5t-150 15.5q-135 0 -238.5 -60.5t-156.5 -142t-86 -189 t-41 -180.5t-8 -134q0 -358 342 -359q63 0 147 10.5t144 20.5l57 10q18 0 18 -20v-160q0 -18 -22 -25q-141 -31 -299 -38l-13 -23l-75 -20h41q70 0 119 -54.5t49 -134.5q0 -104 -86 -183t-203 -79q-55 0 -113.5 15.5t-89.5 29.5l-31 16q-18 8 -18 21l59 106q8 16 25 17 q2 0 31.5 -10.5t75.5 -20.5t92 -10q33 0 52 20.5t19 55.5q0 47 -51 47h-160q-16 0 -16 16l100 195q-459 44 -459 495z" />
<glyph unicode="&#xc8;" horiz-adv-x="1230" d="M82 20l242 1373q2 16 24 20l209 21h649q20 0 21 -21v-164q0 -20 -21 -20h-665l-68 -389h594q16 0 16 -21l-28 -164q-4 -20 -25 -20h-594l-76 -430h656q16 0 16 -21l-49 -164q-6 -20 -22 -20h-861q-18 0 -18 20zM530 1864q4 20 23 20h184q29 0 39 -20l154 -287 q-4 -20 -25 -21h-143q-23 0 -37 21z" />
<glyph unicode="&#xc9;" horiz-adv-x="1230" d="M82 20l242 1373q2 16 24 20l209 21h649q20 0 21 -21v-164q0 -20 -21 -20h-665l-68 -389h594q16 0 16 -21l-28 -164q-4 -20 -25 -20h-594l-76 -430h656q16 0 16 -21l-49 -164q-6 -20 -22 -20h-861q-18 0 -18 20zM705 1577q2 10 256 287q16 20 43 20h184q18 0 18 -20 q-2 -10 -297 -287q-20 -20 -45 -21h-143q-16 1 -16 21z" />
<glyph unicode="&#xca;" horiz-adv-x="1230" d="M82 20l242 1373q2 16 24 20l209 21h649q20 0 21 -21v-164q0 -20 -21 -20h-665l-68 -389h594q16 0 16 -21l-28 -164q-4 -20 -25 -20h-594l-76 -430h656q16 0 16 -21l-49 -164q-6 -20 -22 -20h-861q-18 0 -18 20zM500 1577q2 10 256 287q20 20 43 20h123q25 0 39 -20 l153 -287q-4 -20 -24 -21h-164q-27 0 -37 21l-47 94v90l-39 -92l-78 -92q-16 -20 -45 -21h-164q-16 1 -16 21z" />
<glyph unicode="&#xcb;" horiz-adv-x="1230" d="M82 20l242 1373q2 16 24 20l209 21h649q20 0 21 -21v-164q0 -20 -21 -20h-665l-68 -389h594q16 0 16 -21l-28 -164q-4 -20 -25 -20h-594l-76 -430h656q16 0 16 -21l-49 -164q-6 -20 -22 -20h-861q-18 0 -18 20zM477 1673q0 18 2 27q10 59 60.5 101t109.5 42 q51 0 85 -32.5t34 -84.5q0 -68 -51 -119t-119 -51q-53 0 -87 33t-34 84zM887 1673q0 18 2 27q10 59 60 101t110 42q51 0 85 -32.5t34 -84.5q0 -68 -51.5 -119t-118.5 -51q-53 0 -87 33t-34 84z" />
<glyph unicode="&#xcc;" horiz-adv-x="614" d="M82 20l242 1373q2 16 24 20q205 20 209 21q16 0 16 -21l-245 -1393q-4 -20 -23 -20h-205q-18 0 -18 20zM203 1864q4 20 22 20h185q29 0 39 -20l153 -287q-4 -20 -24 -21h-144q-23 0 -37 21z" />
<glyph unicode="&#xcd;" horiz-adv-x="614" d="M82 20l242 1373q2 16 24 20q205 20 209 21q16 0 16 -21l-245 -1393q-4 -20 -23 -20h-205q-18 0 -18 20zM356 1577q2 10 256 287q16 20 43 20h185q18 0 18 -20q-2 -10 -297 -287q-20 -20 -45 -21h-143q-17 1 -17 21z" />
<glyph unicode="&#xce;" horiz-adv-x="614" d="M82 20l242 1373q2 16 24 20q205 20 209 21q16 0 16 -21l-245 -1393q-4 -20 -23 -20h-205q-18 0 -18 20zM174 1577q2 10 256 287q20 20 43 20h123q25 0 39 -20l153 -287q-4 -20 -24 -21h-164q-27 0 -37 21l-47 94v90l-39 -92l-78 -92q-16 -20 -45 -21h-164q-16 1 -16 21z " />
<glyph unicode="&#xcf;" horiz-adv-x="614" d="M82 20l242 1373q2 16 24 20q205 20 209 21q16 0 16 -21l-245 -1393q-4 -20 -23 -20h-205q-18 0 -18 20zM152 1673q0 18 2 27q10 59 60 101t110 42q51 0 84.5 -32.5t33.5 -84.5q0 -68 -51 -119t-119 -51q-53 0 -86.5 33t-33.5 84zM561 1673q0 18 2 27q10 59 60.5 101 t109.5 42q51 0 85 -32.5t34 -84.5q0 -68 -51 -119t-119 -51q-53 0 -87 33t-34 84z" />
<glyph unicode="&#xd0;" horiz-adv-x="1499" d="M66 651q0 6 12 48l24 81l13 39q6 20 24 21h144l96 553q2 16 24 20l189 21h266q571 0 572 -492q0 -98 -23 -225q-18 -104 -44 -189.5t-84 -188.5t-140 -173t-219.5 -118t-313.5 -48h-450q-18 0 -19 20l109 615h-164q-16 0 -16 16zM416 205h225q139 0 242.5 61.5t155 141 t83 185t37.5 168t6 111.5q0 356 -344 357h-225l-68 -389h164q16 0 17 -17q0 -8 -13 -50l-24 -81l-13 -37q-6 -20 -24 -20h-143z" />
<glyph unicode="&#xd1;" horiz-adv-x="1515" d="M82 20l242 1373q2 16 24 20l168 21h164q10 0 16 -21l312 -1024l16 -143l201 1147q2 16 24 20l209 21q16 0 17 -21l-246 -1393q-4 -20 -23 -20h-327q-12 0 -19 20l-311 1024l-14 144l-207 -1168q-4 -20 -23 -20h-205q-18 0 -18 20zM565 1597q18 111 90 178.5t179 67.5 q51 0 144 -51t114 -51q72 0 82 61q4 20 24 21h123q16 0 16 -21q-18 -111 -89.5 -178.5t-178.5 -67.5q-51 0 -144.5 51.5t-113.5 51.5q-74 0 -82 -62q-4 -20 -24 -20h-121q-19 0 -19 20z" />
<glyph unicode="&#xd2;" horiz-adv-x="1529" d="M109 496q0 111 20 221q129 737 786 737q545 0 545 -516q0 -111 -20 -221q-129 -737 -785 -737q-546 0 -546 516zM367 530q0 -346 323 -346q401 0 494 533q18 119 18 188q0 344 -323 344q-399 0 -494 -532q-18 -99 -18 -187zM659 1864q4 20 23 20h184q29 0 39 -20 l154 -287q-4 -20 -25 -21h-143q-23 0 -37 21z" />
<glyph unicode="&#xd3;" horiz-adv-x="1529" d="M109 496q0 111 20 221q129 737 786 737q545 0 545 -516q0 -111 -20 -221q-129 -737 -785 -737q-546 0 -546 516zM367 530q0 -346 323 -346q401 0 494 533q18 119 18 188q0 344 -323 344q-399 0 -494 -532q-18 -99 -18 -187zM813 1577q2 10 256 287q16 20 43 20h184 q18 0 19 -20q-2 -10 -297 -287q-20 -20 -45 -21h-144q-16 1 -16 21z" />
<glyph unicode="&#xd4;" horiz-adv-x="1529" d="M109 496q0 111 20 221q129 737 786 737q545 0 545 -516q0 -111 -20 -221q-129 -737 -785 -737q-546 0 -546 516zM367 530q0 -346 323 -346q401 0 494 533q18 119 18 188q0 344 -323 344q-399 0 -494 -532q-18 -99 -18 -187zM629 1577q2 10 256 287q20 20 43 20h123 q25 0 39 -20l153 -287q-4 -20 -24 -21h-164q-27 0 -37 21l-47 94v90l-39 -92l-78 -92q-16 -20 -45 -21h-164q-16 1 -16 21z" />
<glyph unicode="&#xd5;" horiz-adv-x="1529" d="M109 496q0 111 20 221q129 737 786 737q545 0 545 -516q0 -111 -20 -221q-129 -737 -785 -737q-546 0 -546 516zM367 530q0 -346 323 -346q401 0 494 533q18 119 18 188q0 344 -323 344q-399 0 -494 -532q-18 -99 -18 -187zM571 1597q18 111 90 178.5t179 67.5 q51 0 144 -51t114 -51q74 0 82 61q4 20 24 21h123q16 0 16 -21q-18 -111 -89.5 -178.5t-178.5 -67.5q-51 0 -144 51.5t-114 51.5q-72 0 -82 -62q-4 -20 -24 -20h-121q-19 0 -19 20z" />
<glyph unicode="&#xd6;" horiz-adv-x="1529" d="M109 496q0 111 20 221q129 737 786 737q545 0 545 -516q0 -111 -20 -221q-129 -737 -785 -737q-546 0 -546 516zM367 530q0 -346 323 -346q401 0 494 533q18 119 18 188q0 344 -323 344q-399 0 -494 -532q-18 -99 -18 -187zM606 1673q0 18 2 27q10 59 60.5 101t109.5 42 q51 0 85 -32.5t34 -84.5q0 -68 -51 -119t-119 -51q-53 0 -87 33t-34 84zM1016 1673q0 18 2 27q10 59 60 101t110 42q51 0 85 -32.5t34 -84.5q0 -68 -51.5 -119t-118.5 -51q-53 0 -87 33t-34 84z" />
<glyph unicode="&#xd7;" horiz-adv-x="1161" d="M10 209q0 8 8 16l410 348l-283 347q-4 4 -4 14q0 8 9 16l135 115q10 6 16 6q8 0 14 -6l283 -346l408 346q10 6 16 6q8 0 14 -6l94 -115q4 -4 5 -14q0 -8 -9 -16l-407 -347l287 -346q4 -6 4 -16q0 -8 -11 -14l-133 -115q-10 -6 -16 -6q-8 0 -14 6l-289 346l-406 -346 q-10 -6 -18 -6t-12 6l-93 111q-8 8 -8 16z" />
<glyph unicode="&#xd8;" horiz-adv-x="1589" d="M-14 16l16 17q16 18 70 72l118 120q-51 109 -51 269q0 113 21 223q129 737 786 737q238 0 373 -100l59 59q20 20 45 21h205q16 0 17 -21l-207 -207q53 -109 53 -270q0 -92 -21 -219q-129 -737 -784 -737q-238 0 -377 100l-57 -60q-18 -20 -43 -20h-205q-18 0 -18 16z M397 524q0 -45 6 -86l738 738q-84 74 -232 73q-399 0 -493 -532q-19 -121 -19 -193zM489 258q80 -74 232 -74q401 0 493 533q18 98 19 186q0 49 -6 92z" />
<glyph unicode="&#xd9;" horiz-adv-x="1443" d="M139 369q0 70 17 163l151 861q4 20 25 20l209 21q16 0 16 -21l-151 -860q-16 -92 -17 -152q0 -109 57.5 -163t200.5 -54q186 0 263 90.5t110 278.5l147 840q4 20 25 20l209 21q16 0 16 -21l-155 -881q-51 -297 -214 -424.5t-436 -127.5q-231 0 -352 91t-121 298z M616 1864q4 20 23 20h184q29 0 39 -20l154 -287q-4 -20 -25 -21h-143q-23 0 -37 21z" />
<glyph unicode="&#xda;" horiz-adv-x="1443" d="M139 369q0 70 17 163l151 861q4 20 25 20l209 21q16 0 16 -21l-151 -860q-16 -92 -17 -152q0 -109 57.5 -163t200.5 -54q186 0 263 90.5t110 278.5l147 840q4 20 25 20l209 21q16 0 16 -21l-155 -881q-51 -297 -214 -424.5t-436 -127.5q-231 0 -352 91t-121 298z M772 1577q2 10 256 287q16 20 43 20h184q18 0 19 -20q-2 -10 -297 -287q-20 -20 -45 -21h-144q-16 1 -16 21z" />
<glyph unicode="&#xdb;" horiz-adv-x="1443" d="M139 369q0 70 17 163l151 861q4 20 25 20l209 21q16 0 16 -21l-151 -860q-16 -92 -17 -152q0 -109 57.5 -163t200.5 -54q186 0 263 90.5t110 278.5l147 840q4 20 25 20l209 21q16 0 16 -21l-155 -881q-51 -297 -214 -424.5t-436 -127.5q-231 0 -352 91t-121 298z M586 1577q2 10 256 287q20 20 43 20h123q25 0 39 -20l153 -287q-4 -20 -24 -21h-164q-27 0 -37 21l-47 94v90l-39 -92l-78 -92q-16 -20 -45 -21h-164q-16 1 -16 21z" />
<glyph unicode="&#xdc;" horiz-adv-x="1443" d="M139 369q0 70 17 163l151 861q4 20 25 20l209 21q16 0 16 -21l-151 -860q-16 -92 -17 -152q0 -109 57.5 -163t200.5 -54q186 0 263 90.5t110 278.5l147 840q4 20 25 20l209 21q16 0 16 -21l-155 -881q-51 -297 -214 -424.5t-436 -127.5q-231 0 -352 91t-121 298z M563 1673q0 18 2 27q10 59 60.5 101t109.5 42q51 0 85 -32.5t34 -84.5q0 -68 -51 -119t-119 -51q-53 0 -87 33t-34 84zM973 1673q0 18 2 27q10 59 60 101t110 42q51 0 85 -32.5t34 -84.5q0 -68 -51.5 -119t-118.5 -51q-53 0 -87 33t-34 84z" />
<glyph unicode="&#xdd;" horiz-adv-x="1228" d="M141 1393q2 16 25 20l219 21q18 0 27 -21l213 -532l14 -103l47 103l401 532q16 20 35 21h226q16 0 16 -17q0 -6 -158 -209l-317 -403l-158 -201l-104 -584q-4 -20 -23 -20h-205q-18 0 -18 20l104 584q-344 779 -344 789zM676 1577q2 10 256 287q16 20 43 20h184 q18 0 19 -20q-2 -10 -297 -287q-20 -20 -45 -21h-144q-16 1 -16 21z" />
<glyph unicode="&#xde;" horiz-adv-x="1214" d="M82 20l242 1373q2 16 24 20q205 20 209 21q16 0 16 -21l-43 -246h185q262 0 365.5 -85t103.5 -228q0 -39 -13 -117q-12 -70 -31.5 -124t-62.5 -114.5t-106.5 -100.5t-168 -65.5t-239.5 -25.5h-184l-51 -287q-4 -20 -23 -20h-205q-18 0 -18 20zM416 512h184 q90 0 154.5 20.5t98.5 49t52.5 72.5t22.5 76t4 73q0 160 -254 160h-184z" />
<glyph unicode="&#xdf;" horiz-adv-x="1210" d="M29 16l8 17q8 18 19.5 54t19.5 77l166 942q18 100 50 173t92 134.5t161.5 92t242.5 30.5q193 0 271 -77t78 -214q0 -27 -3.5 -56.5t-7.5 -57t-9 -55t-12 -52.5l-13 -47l-12 -40l-9 -31q-4 -13 -6 -19l-4 -6h-103q-78 0 -119.5 -35t-41.5 -86q0 -43 46 -79t100 -62.5 t100.5 -89t46.5 -150.5q0 -190 -126 -294.5t-348 -104.5q-49 0 -104 5t-86 11l-31 4q-18 4 -18 16q0 6 12 49l25 80l12 39q6 20 25 21q147 -20 200 -21q96 0 142.5 40t46.5 100q0 43 -46 79.5t-100.5 63.5t-100.5 88t-46 150q0 152 92 256t229 104l9 41q8 41 8 90 q0 135 -133 135q-129 0 -187.5 -60.5t-77.5 -164.5l-165 -942q-6 -37 -18.5 -73t-20.5 -54l-9 -17q-10 -20 -22 -20h-205q-18 0 -18 16z" />
<glyph unicode="&#xe0;" d="M61 328q0 70 23 192q20 119 53 206t94.5 164t163 115.5t240.5 38.5q63 0 126.5 -25.5t94.5 -51.5l33 -25l12 62q4 20 21 20h204q20 0 21 -20q-2 -10 -24 -137l-51 -301l-48 -281q-20 -129 -20 -162v-103q0 -20 -21 -20h-205q-20 0 -20 20v62q-143 -102 -287 -102 q-229 0 -319.5 92t-90.5 256zM315 379q0 -96 38 -145.5t139 -49.5q156 0 228.5 86t98.5 242q10 61 10 123q0 104 -43 154.5t-172 50.5q-141 0 -199.5 -82t-86.5 -246q-13 -70 -13 -133zM420 1454q4 20 22 21h185q29 0 39 -21l153 -287q-4 -20 -24 -20h-144q-23 0 -37 20z " />
<glyph unicode="&#xe1;" d="M61 328q0 70 23 192q20 119 53 206t94.5 164t163 115.5t240.5 38.5q63 0 126.5 -25.5t94.5 -51.5l33 -25l12 62q4 20 21 20h204q20 0 21 -20q-2 -10 -24 -137l-51 -301l-48 -281q-20 -129 -20 -162v-103q0 -20 -21 -20h-205q-20 0 -20 20v62q-143 -102 -287 -102 q-229 0 -319.5 92t-90.5 256zM315 379q0 -96 38 -145.5t139 -49.5q156 0 228.5 86t98.5 242q10 61 10 123q0 104 -43 154.5t-172 50.5q-141 0 -199.5 -82t-86.5 -246q-13 -70 -13 -133zM618 1167q2 10 256 287q16 20 44 21h184q18 0 18 -21q-2 -10 -297 -287 q-20 -20 -45 -20h-143q-17 0 -17 20z" />
<glyph unicode="&#xe2;" d="M61 328q0 70 23 192q20 119 53 206t94.5 164t163 115.5t240.5 38.5q63 0 126.5 -25.5t94.5 -51.5l33 -25l12 62q4 20 21 20h204q20 0 21 -20q-2 -10 -24 -137l-51 -301l-48 -281q-20 -129 -20 -162v-103q0 -20 -21 -20h-205q-20 0 -20 20v62q-143 -102 -287 -102 q-229 0 -319.5 92t-90.5 256zM315 379q0 -96 38 -145.5t139 -49.5q156 0 228.5 86t98.5 242q10 61 10 123q0 104 -43 154.5t-172 50.5q-141 0 -199.5 -82t-86.5 -246q-13 -70 -13 -133zM391 1167q2 10 256 287q20 20 43 21h123q25 0 39 -21l154 -287q-4 -20 -25 -20h-164 q-27 0 -37 20l-47 95v90l-39 -92l-78 -93q-16 -20 -45 -20h-163q-17 0 -17 20z" />
<glyph unicode="&#xe3;" d="M61 328q0 70 23 192q20 119 53 206t94.5 164t163 115.5t240.5 38.5q63 0 126.5 -25.5t94.5 -51.5l33 -25l12 62q4 20 21 20h204q20 0 21 -20q-2 -10 -24 -137l-51 -301l-48 -281q-20 -129 -20 -162v-103q0 -20 -21 -20h-205q-20 0 -20 20v62q-143 -102 -287 -102 q-229 0 -319.5 92t-90.5 256zM315 379q0 -96 38 -145.5t139 -49.5q156 0 228.5 86t98.5 242q10 61 10 123q0 104 -43 154.5t-172 50.5q-141 0 -199.5 -82t-86.5 -246q-13 -70 -13 -133zM332 1208q18 111 90 178.5t178 67.5q51 0 144.5 -51t113.5 -51q72 0 82 61q4 20 25 21 h122q16 0 17 -21q-18 -111 -90 -178.5t-178 -67.5q-51 0 -144.5 51.5t-113.5 51.5q-74 0 -82 -62q-4 -20 -25 -20h-121q-18 0 -18 20z" />
<glyph unicode="&#xe4;" d="M61 328q0 70 23 192q20 119 53 206t94.5 164t163 115.5t240.5 38.5q63 0 126.5 -25.5t94.5 -51.5l33 -25l12 62q4 20 21 20h204q20 0 21 -20q-2 -10 -24 -137l-51 -301l-48 -281q-20 -129 -20 -162v-103q0 -20 -21 -20h-205q-20 0 -20 20v62q-143 -102 -287 -102 q-229 0 -319.5 92t-90.5 256zM315 379q0 -96 38 -145.5t139 -49.5q156 0 228.5 86t98.5 242q10 61 10 123q0 104 -43 154.5t-172 50.5q-141 0 -199.5 -82t-86.5 -246q-13 -70 -13 -133zM381 1284q0 18 2 27q10 59 60.5 101t109.5 42q51 0 85 -32.5t34 -84.5 q0 -68 -51.5 -119t-118.5 -51q-53 0 -87 33t-34 84zM791 1284q0 18 2 27q10 59 60 101t110 42q51 0 84.5 -32.5t33.5 -84.5q0 -68 -51 -119t-119 -51q-53 0 -86.5 33t-33.5 84z" />
<glyph unicode="&#xe5;" d="M61 328q0 70 23 192q20 119 53 206t94.5 164t163 115.5t240.5 38.5q63 0 126.5 -25.5t94.5 -51.5l33 -25l12 62q4 20 21 20h204q20 0 21 -20q-2 -10 -24 -137l-51 -301l-48 -281q-20 -129 -20 -162v-103q0 -20 -21 -20h-205q-20 0 -20 20v62q-143 -102 -287 -102 q-229 0 -319.5 92t-90.5 256zM315 379q0 -96 38 -145.5t139 -49.5q156 0 228.5 86t98.5 242q10 61 10 123q0 104 -43 154.5t-172 50.5q-141 0 -199.5 -82t-86.5 -246q-13 -70 -13 -133zM487 1300q0 35 5 52q18 96 87.5 160.5t196.5 64.5q211 0 211 -172q0 -119 -72.5 -199 t-218.5 -80q-111 0 -160 48t-49 126zM653 1331q0 -61 70 -61q47 0 72.5 30.5t25.5 69.5q0 63 -69 64q-84 0 -97 -82q-2 -7 -2 -21z" />
<glyph unicode="&#xe6;" horiz-adv-x="1779" d="M20 240q0 186 135.5 290.5t358.5 104.5l221 -21l17 91q2 8 2 22q0 51 -47.5 82t-135.5 31q-63 0 -153 -20.5t-157.5 -41t-72.5 -20.5q-18 0 -18 14q0 2 9 33l23 75q13 44 19 62q4 14 23 23q197 80 362 79q229 0 334 -108q141 106 383 106q375 0 375 -366q0 -80 -15 -164 l-14 -82q-4 -20 -27 -20h-686q0 -4 -1 -14.5t-1 -16.5q0 -94 52.5 -144.5t185.5 -50.5q72 0 158 10.5t141 20.5l57 10q16 0 17 -16q0 -8 -13 -49l-24 -80l-12 -39q-6 -18 -25 -21q-150 -41 -334 -40q-281 0 -391 110q-82 -61 -164 -85.5t-264 -24.5q-49 0 -99.5 12 t-101.5 38.5t-84 81t-33 128.5zM268 272q0 -88 105 -88q63 0 106 6.5t92.5 26t81 62.5t43.5 110l9 41h-226q-92 0 -151.5 -44t-59.5 -114zM991 614h459q2 14 2 43q0 182 -164 183q-135 0 -199.5 -57.5t-97.5 -168.5z" />
<glyph unicode="&#xe7;" horiz-adv-x="1052" d="M61 336q0 66 19 176q20 121 57 209t104.5 166t183.5 117.5t280 39.5q162 0 276 -61q16 -6 16 -20v-164q0 -20 -22 -21l-49 17q-47 14 -120 29.5t-136 15.5q-176 0 -246 -82t-98 -246q-12 -61 -13 -117q0 -100 54.5 -155.5t185.5 -55.5q68 0 138.5 10.5t113.5 20.5l43 10 q16 0 16 -20q-6 -156 -8 -164q-10 -41 -258 -57l-12 -25l-76 -20h41q70 0 119 -54.5t49 -134.5q0 -104 -86 -183t-203 -79q-55 0 -113.5 15.5t-89.5 29.5l-30 16q-18 8 -19 21l60 106q8 16 24 17q2 0 32 -10.5t76 -20.5t91 -10q33 0 52 20.5t19 55.5q0 47 -51 47h-159 q-16 0 -17 16q0 6 101 195q-188 20 -266.5 110t-78.5 240z" />
<glyph unicode="&#xe8;" horiz-adv-x="1138" d="M61 344q0 74 17 168q20 119 58 208t105.5 166t178 116.5t262.5 39.5q375 0 375 -366q0 -80 -15 -164l-14 -82q-4 -20 -27 -20h-686q0 -4 -1 -14.5t-1 -16.5q0 -94 52.5 -144.5t185.5 -50.5q45 0 98 4.5t96 10.5t79 12l59 10q23 4 24 4q16 0 17 -16q0 -8 -13 -49l-24 -80 l-13 -39q-6 -18 -24 -21q-150 -41 -334 -40q-248 0 -351.5 96t-103.5 268zM350 614h459q2 14 2 43q0 182 -164 183q-135 0 -199.5 -57.5t-97.5 -168.5zM397 1454q4 20 23 21h184q29 0 39 -21l154 -287q-4 -20 -25 -20h-143q-23 0 -37 20z" />
<glyph unicode="&#xe9;" horiz-adv-x="1138" d="M61 344q0 74 17 168q20 119 58 208t105.5 166t178 116.5t262.5 39.5q375 0 375 -366q0 -80 -15 -164l-14 -82q-4 -20 -27 -20h-686q0 -4 -1 -14.5t-1 -16.5q0 -94 52.5 -144.5t185.5 -50.5q45 0 98 4.5t96 10.5t79 12l59 10q23 4 24 4q16 0 17 -16q0 -8 -13 -49l-24 -80 l-13 -39q-6 -18 -24 -21q-150 -41 -334 -40q-248 0 -351.5 96t-103.5 268zM350 614h459q2 14 2 43q0 182 -164 183q-135 0 -199.5 -57.5t-97.5 -168.5zM551 1167q2 10 256 287q16 20 43 21h184q18 0 19 -21q-2 -10 -297 -287q-20 -20 -45 -20h-144q-16 0 -16 20z" />
<glyph unicode="&#xea;" horiz-adv-x="1138" d="M61 344q0 74 17 168q20 119 58 208t105.5 166t178 116.5t262.5 39.5q375 0 375 -366q0 -80 -15 -164l-14 -82q-4 -20 -27 -20h-686q0 -4 -1 -14.5t-1 -16.5q0 -94 52.5 -144.5t185.5 -50.5q45 0 98 4.5t96 10.5t79 12l59 10q23 4 24 4q16 0 17 -16q0 -8 -13 -49l-24 -80 l-13 -39q-6 -18 -24 -21q-150 -41 -334 -40q-248 0 -351.5 96t-103.5 268zM350 614h459q2 14 2 43q0 182 -164 183q-135 0 -199.5 -57.5t-97.5 -168.5zM367 1167q2 10 256 287q20 20 43 21h122q25 0 39 -21l154 -287q-4 -20 -25 -20h-163q-27 0 -37 20l-47 95v90l-39 -92 l-78 -93q-16 -20 -45 -20h-164q-16 0 -16 20z" />
<glyph unicode="&#xeb;" horiz-adv-x="1138" d="M61 344q0 74 17 168q20 119 58 208t105.5 166t178 116.5t262.5 39.5q375 0 375 -366q0 -80 -15 -164l-14 -82q-4 -20 -27 -20h-686q0 -4 -1 -14.5t-1 -16.5q0 -94 52.5 -144.5t185.5 -50.5q45 0 98 4.5t96 10.5t79 12l59 10q23 4 24 4q16 0 17 -16q0 -8 -13 -49l-24 -80 l-13 -39q-6 -18 -24 -21q-150 -41 -334 -40q-248 0 -351.5 96t-103.5 268zM348 1284q0 18 2 27q10 59 60.5 101t109.5 42q51 0 85 -32.5t34 -84.5q0 -68 -51 -119t-119 -51q-53 0 -87 33t-34 84zM350 614h459q2 14 2 43q0 182 -164 183q-135 0 -199.5 -57.5t-97.5 -168.5z M758 1284q0 18 2 27q10 59 60 101t110 42q51 0 85 -32.5t34 -84.5q0 -68 -51.5 -119t-118.5 -51q-53 0 -87 33t-34 84z" />
<glyph unicode="&#xec;" horiz-adv-x="550" d="M66 66q0 47 8 98l143 819q4 20 25 21l209 20q16 0 16 -20l-148 -840q-8 -47 -8 -88v-35l2 -16q0 -25 -22 -25h-205q-12 0 -16 11.5t-4 54.5zM96 1454q4 20 23 21h184q29 0 39 -21l154 -287q-4 -20 -25 -20h-143q-23 0 -37 20z" />
<glyph unicode="&#xed;" horiz-adv-x="550" d="M66 66q0 47 8 98l143 819q4 20 25 21l209 20q16 0 16 -20l-148 -840q-8 -47 -8 -88v-35l2 -16q0 -25 -22 -25h-205q-12 0 -16 11.5t-4 54.5zM250 1167q2 10 256 287q16 20 43 21h184q18 0 19 -21q-2 -10 -297 -287q-20 -20 -45 -20h-144q-16 0 -16 20z" />
<glyph unicode="&#xee;" horiz-adv-x="550" d="M66 66q0 47 8 98l143 819q4 20 25 21l209 20q16 0 16 -20l-148 -840q-8 -47 -8 -88v-35l2 -16q0 -25 -22 -25h-205q-12 0 -16 11.5t-4 54.5zM66 1167q2 10 256 287q20 20 43 21h122q25 0 39 -21l154 -287q-4 -20 -25 -20h-163q-27 0 -37 20l-47 95v90l-39 -92l-78 -93 q-16 -20 -45 -20h-164q-16 0 -16 20z" />
<glyph unicode="&#xef;" horiz-adv-x="550" d="M66 66q0 47 8 98l143 819q4 20 25 21l209 20q16 0 16 -20l-148 -840q-8 -47 -8 -88v-35l2 -16q0 -25 -22 -25h-205q-12 0 -16 11.5t-4 54.5zM68 1284q0 18 2 27q10 59 60 101t110 42q51 0 84.5 -32.5t33.5 -84.5q0 -68 -51 -119t-119 -51q-53 0 -86.5 33t-33.5 84z M436 1284q0 18 2 27q10 59 60.5 101t109.5 42q51 0 85 -32.5t34 -84.5q0 -68 -51 -119t-119 -51q-53 0 -87 33t-34 84z" />
<glyph unicode="&#xf0;" horiz-adv-x="1198" d="M59 328q0 113 30 211t92.5 182t176 132t265.5 48q139 0 256 -61q16 92 16 159q0 23 -4 64l-98 -38l-91 -35q-35 -13 -47 -17q-16 0 -16 18l25 146q4 23 26 30l119 45q-57 37 -145 37q-74 0 -168.5 -15t-151.5 -30l-59 -16q-18 0 -19 14l4 19q20 59 47 151q4 12 23 21 q184 61 360 61q262 0 363 -143l115 44l96 38l31 10q18 0 18 -21l-27 -143q-4 -25 -24 -31l-146 -57q8 -51 9 -121q0 -117 -33 -313q-16 -96 -32.5 -167t-43.5 -153t-58.5 -139t-78.5 -113.5t-106.5 -90.5t-141.5 -54t-180 -20q-402 0 -402 348zM311 383q0 -86 44 -142.5 t141 -56.5q150 0 228.5 112t117.5 339q-106 61 -256 61q-137 0 -206 -94t-69 -219z" />
<glyph unicode="&#xf1;" horiz-adv-x="1216" d="M51 20l150 840q2 16 3 44t1 36v59q0 25 24 25h201q18 0 19 -20v-76q12 12 35.5 31.5t100.5 52t158 32.5q188 0 268.5 -66.5t80.5 -211.5q0 -70 -17 -172l-102 -574q-4 -20 -23 -20h-205q-18 0 -18 20l102 574q10 53 11 106q0 80 -33 110t-98 30q-266 0 -310 -246 l-102 -574q-4 -20 -23 -20h-204q-19 0 -19 20zM354 1208q18 111 90 178.5t179 67.5q51 0 144 -51t114 -51q74 0 82 61q4 20 24 21h123q16 0 16 -21q-18 -111 -89.5 -178.5t-178.5 -67.5q-51 0 -144 51.5t-114 51.5q-72 0 -82 -62q-4 -20 -24 -20h-121q-19 0 -19 20z" />
<glyph unicode="&#xf2;" horiz-adv-x="1206" d="M61 369q0 72 15 143q47 268 205.5 400t398.5 132q205 0 318.5 -98t113.5 -295q0 -66 -12 -139q-47 -268 -207 -400t-399 -132q-205 0 -319 96t-114 293zM309 391q0 -102 51.5 -154.5t167.5 -52.5q147 0 222 82t104 246q10 53 10 117q0 104 -51 157.5t-168 53.5 q-147 0 -221 -82t-102 -246q-13 -68 -13 -121zM426 1454q4 20 23 21h184q29 0 39 -21l153 -287q-4 -20 -24 -20h-144q-23 0 -36 20z" />
<glyph unicode="&#xf3;" horiz-adv-x="1206" d="M61 369q0 72 15 143q47 268 205.5 400t398.5 132q205 0 318.5 -98t113.5 -295q0 -66 -12 -139q-47 -268 -207 -400t-399 -132q-205 0 -319 96t-114 293zM309 391q0 -102 51.5 -154.5t167.5 -52.5q147 0 222 82t104 246q10 53 10 117q0 104 -51 157.5t-168 53.5 q-147 0 -221 -82t-102 -246q-13 -68 -13 -121zM580 1167q2 10 256 287q16 20 43 21h184q18 0 18 -21q-2 -10 -297 -287q-20 -20 -45 -20h-143q-16 0 -16 20z" />
<glyph unicode="&#xf4;" horiz-adv-x="1206" d="M61 369q0 72 15 143q47 268 205.5 400t398.5 132q205 0 318.5 -98t113.5 -295q0 -66 -12 -139q-47 -268 -207 -400t-399 -132q-205 0 -319 96t-114 293zM309 391q0 -102 51.5 -154.5t167.5 -52.5q147 0 222 82t104 246q10 53 10 117q0 104 -51 157.5t-168 53.5 q-147 0 -221 -82t-102 -246q-13 -68 -13 -121zM395 1167q2 10 256 287q20 20 43 21h123q25 0 39 -21l154 -287q-4 -20 -25 -20h-164q-27 0 -37 20l-47 95v90l-39 -92l-77 -93q-16 -20 -46 -20h-163q-17 0 -17 20z" />
<glyph unicode="&#xf5;" horiz-adv-x="1206" d="M61 369q0 72 15 143q47 268 205.5 400t398.5 132q205 0 318.5 -98t113.5 -295q0 -66 -12 -139q-47 -268 -207 -400t-399 -132q-205 0 -319 96t-114 293zM309 391q0 -102 51.5 -154.5t167.5 -52.5q147 0 222 82t104 246q10 53 10 117q0 104 -51 157.5t-168 53.5 q-147 0 -221 -82t-102 -246q-13 -68 -13 -121zM342 1208q18 111 90 178.5t178 67.5q51 0 144.5 -51t113.5 -51q74 0 82 61q4 20 25 21h123q16 0 16 -21q-18 -111 -90 -178.5t-178 -67.5q-51 0 -144.5 51.5t-113.5 51.5q-72 0 -82 -62q-4 -20 -25 -20h-121q-18 0 -18 20z" />
<glyph unicode="&#xf6;" horiz-adv-x="1206" d="M61 369q0 72 15 143q47 268 205.5 400t398.5 132q205 0 318.5 -98t113.5 -295q0 -66 -12 -139q-47 -268 -207 -400t-399 -132q-205 0 -319 96t-114 293zM309 391q0 -102 51.5 -154.5t167.5 -52.5q147 0 222 82t104 246q10 53 10 117q0 104 -51 157.5t-168 53.5 q-147 0 -221 -82t-102 -246q-13 -68 -13 -121zM377 1284q0 18 2 27q10 59 60 101t110 42q51 0 85 -32.5t34 -84.5q0 -68 -51.5 -119t-118.5 -51q-53 0 -87 33t-34 84zM786 1284q0 18 2 27q10 59 60.5 101t109.5 42q51 0 85 -32.5t34 -84.5q0 -68 -51 -119t-119 -51 q-53 0 -87 33t-34 84z" />
<glyph unicode="&#xf7;" horiz-adv-x="1261" d="M90 487q0 6 12 49l25 80l12 39q6 20 25 21h983q16 0 16 -17q0 -8 -12 -50l-25 -81l-12 -36q-6 -20 -24 -21h-984q-16 0 -16 16zM424 219q0 16 2 27q10 59 59.5 101t108.5 42q53 0 87 -33.5t34 -85.5q0 -68 -52.5 -118t-119.5 -50q-53 0 -86 33t-33 84zM539 874q0 18 2 27 q10 59 59 101t109 42q53 0 86.5 -33.5t33.5 -84.5q0 -68 -52 -118t-118 -50q-53 0 -86.5 32.5t-33.5 83.5z" />
<glyph unicode="&#xf8;" horiz-adv-x="1265" d="M-33 16l164 160q-39 76 -39 191q0 72 14 145q47 268 206 400t399 132q164 0 268 -61l22 21q18 20 46 20h204q16 0 17 -20l-166 -156q41 -86 41 -201q0 -61 -13 -135q-47 -268 -206.5 -400t-399.5 -132q-160 0 -268 61l-23 -21q-18 -20 -43 -20h-204q-19 0 -19 16z M340 373l465 442q-51 25 -129 25q-147 0 -221 -82t-103 -246q-12 -61 -12 -139zM430 209q53 -25 129 -25q147 0 222 82t104 246q10 66 10 137z" />
<glyph unicode="&#xf9;" horiz-adv-x="1214" d="M90 256q0 76 19 174l96 553q2 16 24 21l209 20q16 0 17 -20l-101 -574q-12 -68 -12 -111q0 -78 33 -106.5t98 -28.5q129 0 210 62.5t101 183.5l97 553q4 20 24 21l209 20q16 0 16 -20l-147 -840q-8 -47 -8 -88v-56q0 -20 -21 -20h-204q-20 0 -21 20v76 q-12 -12 -34.5 -31.5t-98.5 -52t-158 -32.5q-190 0 -269 65.5t-79 210.5zM422 1454q4 20 22 21h185q29 0 39 -21l153 -287q-4 -20 -24 -20h-144q-23 0 -37 20z" />
<glyph unicode="&#xfa;" horiz-adv-x="1214" d="M90 256q0 76 19 174l96 553q2 16 24 21l209 20q16 0 17 -20l-101 -574q-12 -68 -12 -111q0 -78 33 -106.5t98 -28.5q129 0 210 62.5t101 183.5l97 553q4 20 24 21l209 20q16 0 16 -20l-147 -840q-8 -47 -8 -88v-56q0 -20 -21 -20h-204q-20 0 -21 20v76 q-12 -12 -34.5 -31.5t-98.5 -52t-158 -32.5q-190 0 -269 65.5t-79 210.5zM575 1167q2 10 256 287q16 20 43 21h185q18 0 18 -21q-2 -10 -297 -287q-20 -20 -45 -20h-143q-17 0 -17 20z" />
<glyph unicode="&#xfb;" horiz-adv-x="1214" d="M90 256q0 76 19 174l96 553q2 16 24 21l209 20q16 0 17 -20l-101 -574q-12 -68 -12 -111q0 -78 33 -106.5t98 -28.5q129 0 210 62.5t101 183.5l97 553q4 20 24 21l209 20q16 0 16 -20l-147 -840q-8 -47 -8 -88v-56q0 -20 -21 -20h-204q-20 0 -21 20v76 q-12 -12 -34.5 -31.5t-98.5 -52t-158 -32.5q-190 0 -269 65.5t-79 210.5zM391 1167q2 10 256 287q20 20 43 21h123q25 0 39 -21l154 -287q-4 -20 -25 -20h-164q-27 0 -37 20l-47 95v90l-39 -92l-78 -93q-16 -20 -45 -20h-163q-17 0 -17 20z" />
<glyph unicode="&#xfc;" horiz-adv-x="1214" d="M90 256q0 76 19 174l96 553q2 16 24 21l209 20q16 0 17 -20l-101 -574q-12 -68 -12 -111q0 -78 33 -106.5t98 -28.5q129 0 210 62.5t101 183.5l97 553q4 20 24 21l209 20q16 0 16 -20l-147 -840q-8 -47 -8 -88v-56q0 -20 -21 -20h-204q-20 0 -21 20v76 q-12 -12 -34.5 -31.5t-98.5 -52t-158 -32.5q-190 0 -269 65.5t-79 210.5zM373 1284q0 18 2 27q10 59 60 101t110 42q51 0 85 -32.5t34 -84.5q0 -68 -51.5 -119t-118.5 -51q-53 0 -87 33t-34 84zM782 1284q0 18 2 27q10 59 60.5 101t109.5 42q51 0 85 -32.5t34 -84.5 q0 -68 -51 -119t-119 -51q-53 0 -87 33t-34 84z" />
<glyph unicode="&#xfd;" horiz-adv-x="1056" d="M-106 -410l49 170q4 14 22 15l41 -11q41 -10 66 -10q51 0 106 51.5t84 102.5l31 51l-209 1024q2 16 25 21q188 20 198 20q18 0 27 -20l121 -666l-6 -143l47 143l350 666q10 20 24 20h215q16 0 17 -20q-2 -10 -549 -1004q-57 -104 -99 -167.5t-106.5 -137.5t-141.5 -110 t-169 -36l-129 21q-14 8 -14 20zM506 1167q2 10 256 287q16 20 43 21h184q18 0 19 -21q-2 -10 -297 -287q-20 -20 -45 -20h-144q-16 0 -16 20z" />
<glyph unicode="&#xfe;" d="M-33 -451l342 1946q2 16 25 21q205 20 209 20q16 0 16 -20l-102 -576q145 104 284 104q221 0 310.5 -87t89.5 -248q0 -80 -21 -197q-23 -125 -54.5 -210t-93 -164t-166 -118.5t-251.5 -39.5q-154 0 -250 100l-90 -510q-2 -16 -22 -21q-205 -20 -209 -20q-17 0 -17 20z M371 399q0 -215 219 -215q139 0 217 128t78 317q0 211 -178 211q-268 0 -324 -328q-12 -62 -12 -113z" />
<glyph unicode="&#xff;" horiz-adv-x="1056" d="M-106 -410l49 170q4 14 22 15l41 -11q41 -10 66 -10q51 0 106 51.5t84 102.5l31 51l-209 1024q2 16 25 21q188 20 198 20q18 0 27 -20l121 -666l-6 -143l47 143l350 666q10 20 24 20h215q16 0 17 -20q-2 -10 -549 -1004q-57 -104 -99 -167.5t-106.5 -137.5t-141.5 -110 t-169 -36l-129 21q-14 8 -14 20zM299 1284q0 18 2 27q10 59 60.5 101t109.5 42q51 0 85 -32.5t34 -84.5q0 -68 -51.5 -119t-118.5 -51q-53 0 -87 33t-34 84zM709 1284q0 18 2 27q10 59 60 101t110 42q51 0 84.5 -32.5t33.5 -84.5q0 -68 -51 -119t-119 -51q-53 0 -86.5 33 t-33.5 84z" />
<glyph unicode="&#x152;" horiz-adv-x="2035" d="M109 496q0 111 20 221q129 737 786 737q143 0 256 -39l191 19h647q20 0 21 -21v-164q0 -20 -21 -20h-663l-68 -389h594q16 0 16 -21l-28 -164q-4 -20 -25 -20h-594l-76 -430h656q16 0 16 -21l-49 -164q-6 -20 -23 -20h-860q-14 0 -16 8q-109 -29 -234 -28 q-546 0 -546 516zM367 530q0 -346 323 -346q139 0 236 60l168 946q-82 59 -215 59q-399 0 -494 -532q-18 -99 -18 -187z" />
<glyph unicode="&#x153;" horiz-adv-x="1914" d="M61 369q0 66 13 143q47 268 206.5 400t399.5 132q250 0 356 -139q150 137 422 137q375 0 375 -366q0 -80 -14 -164l-15 -82q-4 -20 -26 -20h-686q0 -4 -1 -14.5t-1 -16.5q0 -94 52 -144.5t185 -50.5q72 0 158 10.5t141 20.5l57 10q16 0 17 -16q0 -8 -12 -49l-25 -80 l-12 -39q-6 -18 -25 -21q-150 -41 -334 -40q-291 0 -393 139q-158 -139 -405 -139q-205 0 -319 96t-114 293zM309 391q0 -102 51.5 -154.5t167.5 -52.5q266 0 326 328q10 68 10 111q0 217 -219 217q-147 0 -221 -82t-102 -246q-13 -68 -13 -121zM1126 614h459q2 14 2 43 q0 182 -164 183q-135 0 -199.5 -57.5t-97.5 -168.5z" />
<glyph unicode="&#x178;" horiz-adv-x="1228" d="M141 1393q2 16 25 20l219 21q18 0 27 -21l213 -532l14 -103l47 103l401 532q16 20 35 21h226q16 0 16 -17q0 -6 -158 -209l-317 -403l-158 -201l-104 -584q-4 -20 -23 -20h-205q-18 0 -18 20l104 584q-344 779 -344 789zM449 1673q0 18 2 27q10 59 60 101t110 42 q51 0 84.5 -32.5t33.5 -84.5q0 -68 -51 -119t-119 -51q-53 0 -86.5 33t-33.5 84zM858 1673q0 18 2 27q10 59 60.5 101t109.5 42q51 0 85 -32.5t34 -84.5q0 -68 -51 -119t-119 -51q-53 0 -87 33t-34 84z" />
<glyph unicode="&#x2c6;" horiz-adv-x="1132" d="M358 1167q2 10 256 287q20 20 43 21h123q25 0 39 -21l154 -287q-4 -20 -25 -20h-164q-27 0 -36 20l-48 95v90l-38 -92l-78 -93q-16 -20 -45 -20h-164q-17 0 -17 20z" />
<glyph unicode="&#x2dc;" horiz-adv-x="1130" d="M309 1208q18 111 90 178.5t179 67.5q51 0 144 -51t114 -51q74 0 82 61q4 20 24 21h123q16 0 16 -21q-18 -111 -89.5 -178.5t-178.5 -67.5q-51 0 -144.5 51.5t-113.5 51.5q-72 0 -82 -62q-4 -20 -24 -20h-121q-19 0 -19 20z" />
<glyph unicode="&#x2013;" horiz-adv-x="1185" d="M141 487q0 6 13 49l24 80l12 39q6 20 25 21h799q16 0 16 -17q0 -8 -12 -50l-25 -81l-12 -36q-6 -20 -25 -21h-798q-17 0 -17 16z" />
<glyph unicode="&#x2014;" horiz-adv-x="2209" d="M141 487q0 6 13 49l24 80l12 39q6 20 25 21h1823q16 0 16 -17q0 -8 -12 -50l-25 -81l-12 -36q-6 -20 -25 -21h-1822q-17 0 -17 16z" />
<glyph unicode="&#x2018;" horiz-adv-x="538" d="M141 938q0 9 60 124l123 234l63 117q10 20 25 21h190q12 0 12 -11q0 -6 -51 -124l-103 -236q-52 -119 -52 -121q-6 -20 -25 -20h-225q-17 -1 -17 16z" />
<glyph unicode="&#x2019;" horiz-adv-x="532" d="M147 932q0 8 101.5 241.5t105.5 239.5q6 20 25 21h225q16 0 17 -17q0 -8 -122 -240.5t-124 -234.5q-10 -20 -25 -20h-190q-13 0 -13 10z" />
<glyph unicode="&#x201a;" horiz-adv-x="561" d="M-104 -254q0 8 101 237l107 242q6 20 25 21h225q16 0 17 -17q0 -8 -123 -240.5t-125 -234.5q-10 -20 -23 -20h-190q-14 0 -14 12z" />
<glyph unicode="&#x201c;" horiz-adv-x="950" d="M143 942l246 471q10 20 25 21h190q12 0 12 -11q0 -6 -51 -124l-103 -236q-52 -119 -52 -121q-6 -20 -25 -20h-225q-17 0 -17 20zM553 942l246 471q10 20 24 21h191q12 0 12 -11q0 -6 -51 -124l-104 -236q-52 -119 -52 -121q-6 -20 -24 -20h-226q-16 0 -16 20z" />
<glyph unicode="&#x201d;" horiz-adv-x="942" d="M147 932q0 8 101.5 241.5t105.5 239.5q6 20 25 21h225q16 0 17 -21l-246 -471q-10 -20 -25 -20h-190q-13 0 -13 10zM557 932q0 8 101.5 241.5t105.5 239.5q6 20 24 21h226q16 0 16 -21l-246 -471q-10 -20 -24 -20h-191q-12 0 -12 10z" />
<glyph unicode="&#x201e;" horiz-adv-x="970" d="M-104 -254q0 8 101 237l107 242q6 20 25 21h225q16 0 17 -21l-248 -471q-10 -20 -23 -20h-190q-14 0 -14 12zM305 -254q0 8 102 237l107 242q6 20 25 21h225q16 0 16 -21l-248 -471q-10 -20 -22 -20h-191q-14 0 -14 12z" />
<glyph unicode="&#x2022;" horiz-adv-x="739" d="M104 590q0 33 7 65q20 117 98 192t215 75q117 0 171 -55.5t54 -145.5q0 -139 -82 -235.5t-237 -96.5q-117 0 -171.5 55.5t-54.5 145.5z" />
<glyph unicode="&#x2026;" horiz-adv-x="1824" d="M31 96q0 18 2 27q10 59 59 101t109 42q53 0 87 -33.5t34 -85.5q0 -68 -52.5 -117.5t-117.5 -49.5q-53 0 -87 32.5t-34 83.5zM686 96q0 18 2 27q10 59 59.5 101t108.5 42q53 0 87 -33.5t34 -85.5q0 -68 -52.5 -117.5t-117.5 -49.5q-53 0 -87 32.5t-34 83.5zM1343 96 q0 18 3 27q10 59 59 101t108 42q53 0 87 -33.5t34 -85.5q0 -68 -52 -117.5t-118 -49.5q-53 0 -87 32.5t-34 83.5z" />
<glyph unicode="&#x2039;" horiz-adv-x="679" d="M51 567q0 14 12 27l336 410q14 20 35 20h209q16 0 16 -20l-362 -431l211 -430q-4 -20 -25 -20h-209q-18 0 -26 20l-193 410q-4 8 -4 14z" />
<glyph unicode="&#x203a;" horiz-adv-x="677" d="M8 143l363 430l-211 431q4 20 24 20h209q18 0 27 -20l192 -410q4 -12 4 -16q0 -12 -12 -25l-336 -410q-14 -20 -35 -20h-208q-17 0 -17 20z" />
<glyph unicode="&#x20ac;" horiz-adv-x="1421" d="M41 424q0 16 51 170q6 20 23 20h166q10 82 36 205h-186q-16 0 -16 21l49 164q6 20 24 20h197q193 430 719 430q80 0 164 -14.5t129 -30.5l43 -14q18 -8 18 -23v-164q0 -20 -20 -20l-66 16q-63 14 -152.5 29.5t-152.5 15.5q-270 0 -408 -225h512q16 0 17 -16 q0 -10 -24.5 -88t-24.5 -80q-6 -20 -25 -21h-539q-31 -117 -36 -205h559q18 0 18 -16q0 -8 -24.5 -86t-24.5 -82q-10 -20 -25 -20h-491q57 -225 328 -226q63 0 147 10.5t143 20.5l60 10q16 0 16 -20v-160q0 -20 -24 -25q-180 -41 -377 -40q-528 0 -568 430h-217 q-18 0 -18 14z" />
<glyph unicode="&#x2122;" horiz-adv-x="2007" d="M147 1270l21 123q2 16 25 20l167 21h492q16 0 16 -21l-45 -143q-6 -20 -24 -21h-205l-115 -655q-4 -20 -24 -21h-164q-16 0 -17 21l115 655h-225q-17 1 -17 21zM827 594l140 799q4 20 24 20l127 21h172q12 0 17 -21l75 -491v-144l45 144l244 471q10 16 25 20l127 21h176 q16 0 16 -21l-143 -819q-4 -20 -25 -21h-164q-16 0 -16 21l111 635l-74 -185l-242 -450q-10 -20 -24 -21h-185q-12 0 -16 21l-86 450l-8 185l-111 -635q-4 -20 -24 -21h-164q-17 1 -17 21z" />
<glyph unicode="&#xe000;" horiz-adv-x="1025" d="M0 1025h1025v-1025h-1025v1025z" />
<glyph unicode="&#xfb01;" horiz-adv-x="1226" d="M72 840l49 164q6 20 24 20h185l20 123q70 410 545 409q90 0 173 -20t120 -41l39 -18q14 -8 14 -23q0 -8 -22.5 -87t-24.5 -81q-4 -16 -23 -16q-2 0 -51 20.5t-123.5 41t-138.5 20.5q-111 0 -176.5 -40t-85.5 -165l-21 -123h349q27 0 77 5t89 11l38 4q20 0 21 -20 l-152 -860q-8 -47 -8 -88q0 -16 2 -35v-16q0 -25 -22 -25h-205q-12 0 -16.5 11.5t-4.5 54.5q0 47 9 98l114 655h-327l-115 -655q-6 -37 -18.5 -73t-20.5 -54l-8 -17q-10 -20 -23 -20h-205q-18 0 -18 16l8 17q8 18 19.5 54t19.5 77l115 655h-205q-16 1 -16 21z" />
<glyph unicode="&#xfb02;" horiz-adv-x="1249" d="M72 840l49 164q6 20 24 20h185l20 123q31 184 162 296.5t362 112.5l365 -20q16 0 16 -20l-237 -1352q-8 -47 -8 -88q0 -16 2 -35v-16q0 -25 -23 -25h-205q-12 0 -16 11.5t-4 54.5q0 47 8 98l209 1188h-143q-94 0 -158 -40t-84 -165l-21 -123h203q18 0 19 -20l-54 -164 q-6 -20 -22 -21h-182l-115 -655q-6 -37 -18.5 -73t-20.5 -54l-8 -17q-10 -20 -23 -20h-204q-18 0 -19 16l8 17q8 18 19.5 54t19.5 77l115 655h-205q-16 1 -16 21z" />
<glyph unicode="&#xfb03;" horiz-adv-x="1820" d="M68 840l53 164q6 20 24 20h185l16 102q31 186 132.5 298t279.5 112l129 -20q16 -6 16 -21l-49 -168q-4 -16 -25 -16q-4 0 -16 5t-36.5 10t-55.5 5q-98 0 -129 -205l-17 -102h349l20 123q70 410 545 409q186 -2 338 -81q12 -4 12 -21l-49 -168q-4 -16 -25 -16 q-2 0 -51 20.5t-123.5 41t-138.5 20.5q-111 0 -176.5 -40t-85.5 -165l-21 -123h349l206 20q18 0 19 -16l-152 -864q-8 -47 -8 -88q0 -16 2 -35v-16q0 -25 -22 -25h-205q-12 0 -16.5 11.5t-4.5 54.5q0 47 9 98l114 655h-327l-115 -655q-6 -37 -18.5 -73t-20.5 -54l-8 -17 q-10 -20 -23 -20h-205q-18 0 -18 16l8 17q8 18 19.5 54t19.5 77l115 655h-348l-115 -655q-6 -37 -18.5 -73t-20.5 -54l-8 -17q-10 -20 -23 -20h-204q-18 0 -19 16l8 17q8 18 19.5 54t19.5 77l115 655h-205q-20 1 -20 21z" />
<glyph unicode="&#xfb04;" horiz-adv-x="1841" d="M68 840l53 164q6 20 24 20h185l16 102q31 186 132.5 298t279.5 112l129 -20q16 -6 16 -21l-49 -168q-4 -16 -25 -16q-4 0 -16 5t-36.5 10t-55.5 5q-98 0 -129 -205l-17 -102h349l20 123q31 184 162 296.5t362 112.5l365 -20q16 0 16 -16l-237 -1356q-8 -47 -8 -88 q0 -16 2 -35v-16q0 -25 -23 -25h-205q-12 0 -16 11.5t-4 54.5q0 47 8 98l209 1188h-143q-94 0 -158 -40t-84 -165l-21 -123h201q20 0 21 -20l-48 -164q-8 -20 -26 -21h-184l-115 -655q-6 -37 -18.5 -73t-20.5 -54l-8 -17q-10 -20 -23 -20h-205q-18 0 -18 16l8 17 q8 18 19.5 54t19.5 77l115 655h-348l-115 -655q-6 -37 -18.5 -73t-20.5 -54l-8 -17q-10 -20 -23 -20h-204q-18 0 -19 16l8 17q8 18 19.5 54t19.5 77l115 655h-205q-20 1 -20 21z" />
</font>
</defs>
</svg>
